<svg width="168" height="117" viewBox="0 0 168 117" fill="none" xmlns="http://www.w3.org/2000/svg">
<path fill-rule="evenodd" clip-rule="evenodd" d="M133.875 25.5938C141.124 25.5938 147 29.6861 147 34.7344V82.2656C147 87.3139 141.124 91.4062 133.875 91.4062H34.125C26.8763 91.4062 21 87.3139 21 82.2656V34.7344C21 29.6861 26.8763 25.5938 34.125 25.5938H133.875ZM157.5 34.7344C157.5 25.6476 146.923 18.2812 133.875 18.2812H34.125C21.0773 18.2812 10.5 25.6476 10.5 34.7344V82.2656C10.5 91.3524 21.0773 98.7188 34.125 98.7188H133.875C146.923 98.7188 157.5 91.3524 157.5 82.2656V34.7344Z" fill="#A0855B"/>
<path fill-rule="evenodd" clip-rule="evenodd" d="M15.75 50.7305H152.25V37.0195H15.75V50.7305ZM135.844 68.5547C135.844 64.7685 131.437 61.6992 126 61.6992H110.25C104.813 61.6992 100.406 64.7685 100.406 68.5547V73.125C100.406 76.9112 104.813 79.9805 110.25 79.9805H126C131.437 79.9805 135.844 76.9112 135.844 73.125V68.5547Z" fill="#A0855B"/>
</svg>
