<svg width="168" height="117" viewBox="0 0 168 117" fill="none" xmlns="http://www.w3.org/2000/svg">
<path d="M0 102.375H147V95.0625H10.5V43.875H0V102.375Z" fill="#A0855B"/>
<path d="M31.5 29.25V80.4375H157.5V29.25H31.5ZM21 21.9375H168V87.75H21V21.9375Z" fill="#A0855B"/>
<path d="M136.5 43.875H147V65.8125H136.5V73.125H94.5C101.462 73.125 108.139 71.1989 113.062 67.7705C117.984 64.3421 120.75 59.6922 120.75 54.8438C120.75 49.9953 117.984 45.3454 113.062 41.917C108.139 38.4886 101.462 36.5625 94.5 36.5625H136.5V43.875ZM52.5 43.875V36.5625H94.5C87.5381 36.5625 80.8613 38.4886 75.9384 41.917C71.0156 45.3454 68.25 49.9953 68.25 54.8438C68.25 59.6922 71.0156 64.3421 75.9384 67.7705C80.8613 71.1989 87.5381 73.125 94.5 73.125H52.5V65.8125H42V43.875H52.5Z" fill="#A0855B"/>
</svg>
