<svg width="168" height="117" viewBox="0 0 168 117" fill="none" xmlns="http://www.w3.org/2000/svg">
<path fill-rule="evenodd" clip-rule="evenodd" d="M140 24.375C142.321 24.375 144.546 25.017 146.187 26.1598C147.828 27.3026 148.75 28.8526 148.75 30.4688V74.3438C148.75 74.667 148.566 74.977 148.237 75.2055C147.909 75.4341 147.464 75.5625 147 75.5625H145.157C143.431 73.6861 141.149 72.0762 138.448 70.8467C134.747 69.1617 130.422 68.2644 126 68.2644C121.578 68.2644 117.253 69.1617 113.552 70.8467C110.851 72.0762 108.569 73.6861 106.843 75.5625H61.25V30.4688C61.25 28.8526 62.1719 27.3026 63.8128 26.1598C65.4538 25.017 67.6794 24.375 70 24.375H140ZM50.75 31.6875V30.4688C50.75 26.9132 52.7781 23.5033 56.3882 20.9891C59.9983 18.4749 64.8946 17.0625 70 17.0625H140C145.105 17.0625 150.002 18.4749 153.612 20.9891C157.222 23.5033 159.25 26.9132 159.25 30.4688V74.3438C159.25 76.6064 157.959 78.7763 155.662 80.3763C153.365 81.9762 150.249 82.875 147 82.875H142.03C139.945 82.875 138.057 82.0157 137.221 80.6856C136.266 79.1667 134.696 77.8746 132.703 76.9674C130.71 76.0601 128.381 75.5769 126 75.5769C123.619 75.5769 121.29 76.0601 119.297 76.9674C117.304 77.8746 115.734 79.1667 114.779 80.6856C113.943 82.0157 112.055 82.875 109.97 82.875H58.03C55.908 82.875 53.9947 81.9854 53.1811 80.6205C52.8577 80.0777 52.4337 79.5783 51.9004 79.114C51.8573 79.0765 51.8152 79.0383 51.7742 78.9996C50.503 77.7988 48.7995 76.8526 46.8355 76.2567C44.8716 75.6608 42.7167 75.4361 40.5883 75.6055C38.4599 75.7748 36.4332 76.332 34.7128 77.221C32.9924 78.11 31.6391 79.2993 30.7894 80.6689C29.9587 82.0079 28.0645 82.875 25.97 82.875H14C11.1005 82.875 8.75 81.238 8.75 79.2188V65.1319M50.75 39V69.4696C47.1686 68.4224 43.2592 68.0329 39.3967 68.3402C35.4335 68.6554 31.6597 69.6931 28.4561 71.3485C26.2172 72.5055 24.3121 73.9356 22.8277 75.5625H19.25V65.13C19.2479 62.2557 20.3685 59.4333 22.4918 56.9686L31.1018 46.9749L37.486 39.5972C37.6409 39.4153 37.861 39.2645 38.1249 39.1598C38.3885 39.0552 38.6866 39.0001 38.99 39C38.9903 39 38.9897 39 38.99 39H50.75Z" fill="#A0855B"/>
<path fill-rule="evenodd" clip-rule="evenodd" d="M131.25 40.2188C131.25 38.1995 128.9 36.5625 126 36.5625H91C88.1005 36.5625 85.75 38.1995 85.75 40.2188C85.75 42.238 88.1005 43.875 91 43.875H126C128.9 43.875 131.25 42.238 131.25 40.2188ZM131.25 54.8438C131.25 52.8245 128.9 51.1875 126 51.1875H91C88.1005 51.1875 85.75 52.8245 85.75 54.8438C85.75 56.863 88.1005 58.5 91 58.5H126C128.9 58.5 131.25 56.863 131.25 54.8438ZM40.5883 75.6055C42.7167 75.4361 44.8716 75.6608 46.8356 76.2567C48.7995 76.8526 50.503 77.7988 51.7743 78.9996C51.8152 79.0383 51.8573 79.0765 51.9005 79.114C52.4338 79.5783 52.8577 80.0777 53.1812 80.6205L53.221 80.6856C53.9521 81.8481 54.3015 83.1095 54.2439 84.378C54.1862 85.6465 53.7229 86.8901 52.8877 88.018C52.0525 89.146 50.8665 90.13 49.4161 90.8983C47.9656 91.6667 46.2873 92.1999 44.5034 92.4593C42.7196 92.7187 40.8751 92.6976 39.1044 92.3976C37.3337 92.0976 35.6814 91.5263 34.268 90.7252C32.8545 89.9242 31.7155 88.9136 30.9339 87.7671C30.1523 86.6206 29.7479 85.3672 29.75 84.098L29.7499 84.0725C29.7403 82.9195 30.0869 81.7701 30.7675 80.7037L30.7897 80.6689L30.7894 80.6689C31.6391 79.2993 32.9924 78.11 34.7128 77.221C36.4332 76.332 38.4599 75.7748 40.5883 75.6055ZM51.0296 69.5529C47.3726 68.4432 43.36 68.0249 39.3968 68.3402C35.4335 68.6555 31.6597 69.6931 28.4562 71.3485C25.26 73.0001 22.7443 75.2082 21.1615 77.751C19.8918 79.7472 19.2343 81.9119 19.25 84.1022C19.2488 86.4548 19.9998 88.7781 21.4487 90.9034C22.9002 93.0326 25.0155 94.9093 27.6405 96.397C30.2655 97.8847 33.334 98.9457 36.6225 99.5029C39.9109 100.06 43.3364 100.099 46.6493 99.6175C49.9622 99.1358 53.079 98.1454 55.7727 96.7186C58.4664 95.2917 60.669 93.4643 62.22 91.3694C63.7711 89.2746 64.6315 86.9651 64.7386 84.6094C64.8452 82.2653 64.2031 79.9341 62.8591 77.784C62.1718 76.6393 61.271 75.5765 60.1648 74.6031C57.8043 72.3942 54.6553 70.653 51.0296 69.5529ZM123.497 75.7569C126.249 75.3567 129.115 75.6281 131.614 76.5256C134.113 77.423 136.093 78.8919 137.221 80.6856C137.952 81.8481 138.302 83.1095 138.244 84.378C138.186 85.6465 137.723 86.8901 136.888 88.018C136.053 89.146 134.866 90.13 133.416 90.8983C131.966 91.6667 130.287 92.1999 128.503 92.4593C126.72 92.7187 124.875 92.6976 123.104 92.3976C121.334 92.0976 119.681 91.5263 118.268 90.7252C116.855 89.9242 115.715 88.9136 114.934 87.7671C114.152 86.6206 113.748 85.3672 113.75 84.098C113.753 82.1399 114.724 80.2421 116.499 78.7233C118.273 77.2045 120.744 76.1571 123.497 75.7569ZM136.427 70.0263C131.785 68.3596 126.462 67.8555 121.351 68.5987C116.239 69.3419 111.65 71.2871 108.354 74.1077C105.058 76.9284 103.256 80.4529 103.25 84.0895C103.246 86.4464 103.997 88.7742 105.449 90.9034C106.9 93.0326 109.016 94.9093 111.641 96.397C114.266 97.8847 117.334 98.9457 120.622 99.5029C123.911 100.06 127.336 100.099 130.649 99.6175C133.962 99.1358 137.079 98.1454 139.773 96.7186C142.466 95.2917 144.669 93.4643 146.22 91.3694C147.771 89.2746 148.632 86.9651 148.739 84.6094C148.846 82.2536 148.197 79.9109 146.839 77.7519C144.744 74.4208 141.068 71.693 136.427 70.0263Z" fill="#A0855B"/>
</svg>
