<svg width="26" height="18" viewBox="0 0 26 18" fill="none" xmlns="http://www.w3.org/2000/svg">
<path d="M2.6175 3.00038C2.71471 2.99336 2.81269 2.99336 2.90991 3.00038H22.8795C23.0074 3.00177 23.1346 3.01522 23.2574 3.04038L12.9517 10.2354L2.6175 3.00038Z" fill="#F9F6F2"/>
<path d="M1.56195 3.69531L11.9461 10.9453C12.2134 11.1316 12.5749 11.2361 12.9517 11.2361C13.3286 11.2361 13.6901 11.1316 13.9573 10.9453L24.2488 3.75031C24.2804 3.83183 24.2972 3.91584 24.2987 4.00031V14.0003C24.2987 14.2655 24.1484 14.5199 23.8809 14.7074C23.6134 14.895 23.2506 15.0003 22.8723 15.0003H2.90277C2.52446 15.0003 2.16165 14.895 1.89415 14.7074C1.62665 14.5199 1.47637 14.2655 1.47637 14.0003V4.00031C1.48205 3.89614 1.51093 3.79323 1.56195 3.69531ZM21.8952 14.0003H22.8866V13.2853L17.7016 9.68031L16.696 10.3853L21.8952 14.0003ZM2.91703 14.0003H3.91551L9.11472 10.3853L8.10911 9.68031L2.92416 13.2853L2.91703 14.0003Z" fill="#F9F6F2"/>
</svg>
