<svg width="57" height="57" viewBox="0 0 57 57" fill="none" xmlns="http://www.w3.org/2000/svg">
<path d="M32.3238 29.0775C32.3095 29.8299 32.0721 30.561 31.6417 31.1783C31.2113 31.7956 30.6074 32.2712 29.9064 32.5449C29.2054 32.8186 28.439 32.8779 27.7042 32.7155C26.9695 32.5531 26.2995 32.1761 25.7792 31.6325C25.2589 31.0888 24.9117 30.403 24.7817 29.6618C24.6516 28.9206 24.7446 28.1575 25.0487 27.4692C25.3528 26.7809 25.8545 26.1984 26.4901 25.7955C27.1257 25.3927 27.8665 25.1876 28.6188 25.2062C29.6184 25.2433 30.5644 25.6682 31.256 26.3909C31.9477 27.1135 32.3307 28.0772 32.3238 29.0775Z" fill="#F9F6F2"/>
<path d="M35.0621 17.1787H22.1777C20.9028 17.1787 19.6802 17.6852 18.7787 18.5866C17.8772 19.4881 17.3707 20.7108 17.3707 21.9857V35.1598C17.3707 35.7911 17.4951 36.4162 17.7366 36.9994C17.9782 37.5826 18.3323 38.1125 18.7787 38.5589C19.225 39.0053 19.755 39.3594 20.3382 39.6009C20.9214 39.8425 21.5465 39.9668 22.1777 39.9668H35.0621C35.6934 39.9668 36.3184 39.8425 36.9017 39.6009C37.4849 39.3594 38.0148 39.0053 38.4612 38.5589C38.9075 38.1125 39.2616 37.5826 39.5032 36.9994C39.7448 36.4162 39.8691 35.7911 39.8691 35.1598V22.0095C39.8716 21.3764 39.7491 20.749 39.5087 20.1633C39.2684 19.5777 38.9147 19.0452 38.4682 18.5964C38.0216 18.1477 37.4909 17.7914 36.9064 17.5482C36.3219 17.3049 35.6952 17.1793 35.0621 17.1787ZM28.6187 35.5208C27.3433 35.5496 26.0882 35.1977 25.0136 34.5101C23.939 33.8224 23.0937 32.8301 22.5855 31.6599C22.0773 30.4897 21.9293 29.1947 22.1604 27.94C22.3915 26.6853 22.9912 25.5279 23.883 24.6156C24.7747 23.7032 25.9181 23.0773 27.1672 22.8176C28.4163 22.5579 29.7144 22.6763 30.8959 23.1577C32.0774 23.639 33.0887 24.4615 33.8007 25.5201C34.5127 26.5787 34.8932 27.8254 34.8935 29.1012C34.9038 29.935 34.7496 30.7626 34.4398 31.5367C34.1299 32.3107 33.6704 33.0161 33.0875 33.6124C32.5047 34.2087 31.81 34.6842 31.0432 35.0117C30.2764 35.3391 29.4525 35.5122 28.6187 35.5208ZM35.5917 22.684C35.435 22.684 35.2799 22.6528 35.1354 22.5921C34.9909 22.5314 34.8599 22.4425 34.7502 22.3306C34.6405 22.2187 34.5543 22.086 34.4965 21.9403C34.4387 21.7946 34.4106 21.6389 34.4137 21.4822C34.4137 21.1635 34.5403 20.8578 34.7657 20.6324C34.9911 20.4071 35.2968 20.2805 35.6155 20.2805C35.9342 20.2805 36.2399 20.4071 36.4652 20.6324C36.6906 20.8578 36.8172 21.1635 36.8172 21.4822C36.8219 21.6519 36.7899 21.8206 36.7234 21.9767C36.6569 22.1328 36.5574 22.2728 36.4318 22.3869C36.3061 22.501 36.1573 22.5866 35.9955 22.6379C35.8337 22.6892 35.6628 22.7049 35.4944 22.684H35.5917Z" fill="#F9F6F2"/>
<path d="M28.6425 0.000356741C21.0839 -0.0374361 13.8199 2.92895 8.44847 8.24695C3.07703 13.5649 0.0381496 20.7989 0.000356741 28.3575C-0.0374361 35.9161 2.92895 43.1801 8.24695 48.5515C13.5649 53.923 20.7989 56.9619 28.3575 56.9996C32.1001 57.0184 35.8098 56.2997 39.2747 54.8848C42.7396 53.4698 45.8919 51.3863 48.5515 48.7531C51.2112 46.1199 53.3262 42.9886 54.7757 39.538C56.2252 36.0874 56.9809 32.3851 56.9996 28.6425C57.0184 24.8999 56.2997 21.1902 54.8848 17.7253C53.4698 14.2604 51.3863 11.1081 48.7531 8.44847C46.1199 5.7888 42.9886 3.67382 39.538 2.22429C36.0874 0.774764 32.3851 0.0190699 28.6425 0.000356741ZM45.9503 36.2006C45.9583 37.4792 45.7123 38.7466 45.2268 39.9295C44.7413 41.1123 44.0257 42.187 43.1218 43.0912C42.2178 43.9955 41.1433 44.7113 39.9606 45.1972C38.7779 45.6831 37.5105 45.9294 36.232 45.9218H21.0587C19.7802 45.9298 18.5127 45.6838 17.3299 45.1983C16.147 44.7128 15.0723 43.9972 14.1681 43.0933C13.2639 42.1893 12.548 41.1148 12.0621 39.9321C11.5762 38.7494 11.3299 37.482 11.3375 36.2035V21.0274C11.3296 19.7488 11.5755 18.4814 12.061 17.2985C12.5466 16.1157 13.2621 15.041 14.1661 14.1368C15.0701 13.2325 16.1445 12.5167 17.3272 12.0308C18.5099 11.5449 19.7773 11.2986 21.0559 11.3062H36.232C37.5103 11.2986 38.7774 11.5448 39.9599 12.0305C41.1424 12.5162 42.2168 13.2318 43.1208 14.1357C44.0247 15.0397 44.7403 16.114 45.226 17.2966C45.7117 18.4791 45.9579 19.7462 45.9503 21.0245V36.2006Z" fill="#F9F6F2"/>
</svg>
