<svg width="26" height="18" viewBox="0 0 26 18" fill="none" xmlns="http://www.w3.org/2000/svg">
<path d="M12.8376 8.625C13.5469 8.625 14.2272 8.42746 14.7287 8.07583C15.2303 7.72419 15.5121 7.24728 15.5121 6.75C15.5121 6.25272 15.2303 5.77581 14.7287 5.42417C14.2272 5.07254 13.5469 4.875 12.8376 4.875C12.1283 4.875 11.448 5.07254 10.9464 5.42417C10.4449 5.77581 10.1631 6.25272 10.1631 6.75C10.1631 6.99623 10.2323 7.24005 10.3667 7.46753C10.5011 7.69502 10.6981 7.90172 10.9464 8.07583C11.1948 8.24994 11.4896 8.38805 11.8141 8.48227C12.1386 8.5765 12.4864 8.625 12.8376 8.625ZM12.8376 1.5C14.8237 1.5 16.7284 2.05312 18.1328 3.03769C19.5372 4.02226 20.3262 5.35761 20.3262 6.75C20.3262 10.6875 12.8376 16.5 12.8376 16.5C12.8376 16.5 5.34902 10.6875 5.34902 6.75C5.34902 5.35761 6.13799 4.02226 7.54237 3.03769C8.94675 2.05312 10.8515 1.5 12.8376 1.5Z" fill="#F9F6F2"/>
</svg>
