<svg width="281" height="197" viewBox="0 0 281 197" fill="none" xmlns="http://www.w3.org/2000/svg">
<path fill-rule="evenodd" clip-rule="evenodd" d="M72.3255 147.984C70.9919 146.153 70.1024 144.619 69.7659 143.586L71.124 143.138C71.3863 143.942 72.1603 145.323 73.4783 147.133C74.7823 148.924 76.5806 151.083 78.8372 153.436C83.3506 158.141 89.6779 163.597 97.5117 168.409C113.177 178.031 134.826 185.051 160.055 178.39C185.367 171.707 201.219 159.12 210.744 144.918C220.277 130.703 223.506 114.817 223.47 101.5L224.9 101.496C224.935 115.036 221.655 131.22 211.929 145.723C202.194 160.239 186.036 173.018 160.417 179.782C134.715 186.568 112.666 179.402 96.7673 169.637C88.8192 164.755 82.398 159.219 77.8091 154.435C75.5146 152.043 73.6732 149.835 72.3255 147.984Z" fill="#F9F6F2"/>
<path d="M97.1363 161.915L97.0988 156.19L96.3572 155.636L93.6484 159.307L92.1367 158.177L98.3352 149.776L99.8469 150.907L97.2985 154.36L97.6774 154.644L103.192 153.408L105.054 154.8L98.931 156.167L98.9984 163.307L97.1363 161.915Z" fill="#F9F6F2"/>
<path d="M106.051 167.24C105.605 167.028 105.24 166.756 104.957 166.426C104.679 166.094 104.51 165.72 104.451 165.304C104.394 164.889 104.475 164.449 104.693 163.984C104.881 163.584 105.11 163.287 105.38 163.095C105.649 162.903 105.948 162.789 106.276 162.753C106.603 162.716 106.945 162.734 107.301 162.805C107.661 162.874 108.021 162.972 108.381 163.098C108.815 163.251 109.168 163.372 109.441 163.46C109.715 163.545 109.928 163.579 110.079 163.56C110.234 163.54 110.349 163.45 110.424 163.289L110.437 163.262C110.601 162.914 110.625 162.595 110.509 162.307C110.394 162.019 110.143 161.783 109.758 161.599C109.351 161.406 108.986 161.342 108.664 161.407C108.344 161.474 108.086 161.609 107.889 161.813L106.442 160.854C106.767 160.481 107.138 160.217 107.555 160.061C107.974 159.902 108.42 159.847 108.895 159.896C109.372 159.941 109.856 160.081 110.349 160.315C110.688 160.477 111.008 160.677 111.307 160.917C111.606 161.158 111.851 161.436 112.043 161.753C112.236 162.067 112.343 162.421 112.364 162.816C112.388 163.211 112.29 163.645 112.069 164.116L109.841 168.866L108.244 168.107L108.701 167.132L108.646 167.106C108.452 167.255 108.224 167.372 107.959 167.457C107.699 167.541 107.407 167.57 107.082 167.543C106.762 167.516 106.419 167.414 106.051 167.24ZM107.059 166.216C107.393 166.374 107.713 166.446 108.02 166.43C108.328 166.41 108.6 166.321 108.836 166.162C109.075 166.004 109.255 165.794 109.378 165.532L109.77 164.696C109.698 164.715 109.591 164.712 109.448 164.69C109.308 164.669 109.155 164.635 108.989 164.59C108.823 164.546 108.66 164.498 108.5 164.448C108.34 164.399 108.201 164.355 108.084 164.318C107.82 164.235 107.572 164.185 107.34 164.169C107.108 164.152 106.903 164.187 106.725 164.272C106.548 164.353 106.409 164.502 106.308 164.718C106.164 165.026 106.166 165.311 106.316 165.575C106.466 165.838 106.714 166.052 107.059 166.216Z" fill="#F9F6F2"/>
<path d="M116.299 171.97L116.621 170.482L116.883 170.541C117.081 170.586 117.258 170.579 117.413 170.52C117.569 170.461 117.714 170.337 117.85 170.148C117.987 169.955 118.12 169.685 118.25 169.337C118.38 168.99 118.514 168.55 118.654 168.02L119.545 164.66L125.091 165.916L123.38 173.573L121.647 173.181L123.027 167.004L120.843 166.51L120.173 168.95C120.001 169.582 119.806 170.119 119.589 170.562C119.376 171.003 119.135 171.351 118.866 171.608C118.601 171.866 118.301 172.035 117.967 172.117C117.634 172.195 117.263 172.188 116.853 172.095L116.299 171.97Z" fill="#F9F6F2"/>
<path d="M132.743 172.554L136.281 167.479L138.163 167.632L137.537 175.455L135.767 175.311L136.193 169.979L132.665 175.06L130.778 174.907L131.404 167.084L133.17 167.227L132.743 172.554Z" fill="#F9F6F2"/>
<path d="M160.229 170.084L161.524 164.023L163.316 163.426L165.766 170.876L164.079 171.438L162.41 166.359L161.126 172.422L159.328 173.021L156.879 165.57L158.56 165.01L160.229 170.084Z" fill="#F9F6F2"/>
<path d="M150.093 170.33L150.204 171.843L146.063 172.149L145.952 170.636L150.093 170.33ZM146.29 167.445L146.86 175.272L145.094 175.402L144.523 167.575L146.29 167.445ZM151.063 167.092L151.634 174.919L149.872 175.049L149.302 167.222L151.063 167.092Z" fill="#F9F6F2"/>
<path d="M175.261 162.057L176.015 163.371L172.419 165.461L171.665 164.147L175.261 162.057ZM170.589 161.127L174.488 167.923L172.954 168.815L169.055 162.019L170.589 161.127ZM174.733 158.717L178.633 165.513L177.103 166.402L173.204 159.606L174.733 158.717Z" fill="#F9F6F2"/>
<path d="M184.072 152.755L184.985 153.963L182.312 156.012L186.122 161.048L184.692 162.144L179.969 155.9L184.072 152.755Z" fill="#F9F6F2"/>
<path d="M195.071 156.693L187.649 148.907L188.953 147.647L189.845 148.584L189.922 148.51C189.859 148.306 189.816 148.066 189.793 147.791C189.768 147.514 189.809 147.217 189.916 146.901C190.02 146.583 190.237 146.265 190.567 145.946C191.002 145.527 191.5 145.26 192.062 145.146C192.625 145.028 193.216 145.087 193.836 145.324C194.456 145.556 195.065 145.987 195.665 146.616C196.258 147.238 196.66 147.864 196.872 148.495C197.084 149.126 197.125 149.724 196.993 150.29C196.862 150.856 196.576 151.352 196.134 151.779C195.811 152.09 195.492 152.294 195.177 152.391C194.861 152.489 194.566 152.523 194.292 152.496C194.017 152.464 193.779 152.413 193.577 152.344L193.522 152.397L196.397 155.413L195.071 156.693ZM191.648 150.482C191.997 150.849 192.354 151.12 192.719 151.296C193.086 151.47 193.441 151.54 193.784 151.506C194.127 151.467 194.439 151.313 194.72 151.041C195.013 150.758 195.183 150.443 195.231 150.094C195.277 149.744 195.218 149.382 195.056 149.01C194.894 148.633 194.644 148.268 194.307 147.914C193.972 147.563 193.624 147.299 193.264 147.123C192.904 146.947 192.551 146.877 192.206 146.913C191.86 146.949 191.54 147.11 191.245 147.395C190.961 147.669 190.792 147.976 190.737 148.317C190.683 148.658 190.733 149.013 190.888 149.382C191.045 149.749 191.299 150.116 191.648 150.482Z" fill="#F9F6F2"/>
<path d="M204.228 141.898C203.957 142.314 203.64 142.64 203.275 142.876C202.91 143.107 202.518 143.223 202.101 143.224C201.685 143.223 201.264 143.08 200.836 142.798C200.469 142.555 200.209 142.286 200.058 141.99C199.907 141.695 199.836 141.381 199.846 141.049C199.856 140.718 199.92 140.38 200.04 140.035C200.159 139.685 200.305 139.34 200.479 138.999C200.69 138.588 200.858 138.253 200.983 137.993C201.105 137.731 201.167 137.524 201.17 137.371C201.172 137.213 201.099 137.086 200.952 136.989L200.926 136.972C200.607 136.76 200.297 136.692 199.997 136.767C199.697 136.842 199.431 137.059 199.197 137.418C198.95 137.796 198.836 138.151 198.855 138.481C198.876 138.809 198.973 139.085 199.147 139.31L198.001 140.619C197.68 140.243 197.471 139.837 197.376 139.399C197.278 138.959 197.286 138.506 197.4 138.04C197.512 137.571 197.717 137.108 198.016 136.649C198.222 136.333 198.464 136.043 198.742 135.778C199.019 135.514 199.328 135.308 199.666 135.161C200.002 135.012 200.366 134.955 200.756 134.989C201.149 135.02 201.561 135.179 201.994 135.465L206.356 138.347L205.387 139.834L204.491 139.242L204.458 139.293C204.578 139.507 204.661 139.752 204.708 140.027C204.754 140.298 204.742 140.593 204.671 140.913C204.599 141.228 204.451 141.557 204.228 141.898ZM203.362 140.751C203.564 140.441 203.679 140.131 203.706 139.823C203.73 139.513 203.68 139.229 203.556 138.972C203.434 138.713 203.253 138.503 203.013 138.344L202.245 137.837C202.253 137.911 202.236 138.018 202.193 138.157C202.153 138.294 202.099 138.441 202.032 138.601C201.964 138.76 201.895 138.916 201.824 139.068C201.753 139.221 201.691 139.353 201.638 139.465C201.519 139.716 201.435 139.956 201.387 140.185C201.339 140.414 201.344 140.624 201.402 140.813C201.458 141.001 201.585 141.16 201.783 141.291C202.066 141.478 202.347 141.515 202.627 141.402C202.907 141.29 203.152 141.073 203.362 140.751Z" fill="#F9F6F2"/>
<path d="M211.455 133.42L207.988 131.912L208.234 131.34C208.182 131.135 208.077 130.937 207.919 130.746C207.759 130.554 207.554 130.365 207.306 130.179C207.056 129.988 206.768 129.796 206.442 129.602C206.113 129.407 205.755 129.205 205.369 128.997L202.951 127.7L205.186 122.494L210.954 125.003L211.434 123.887L214.9 125.395L214.195 127.037L212.117 126.133L210.094 130.846L212.172 131.75L211.455 133.42ZM208.983 129.595L210.258 126.626L205.85 124.708L204.944 126.819L206.042 127.43C206.773 127.822 207.386 128.188 207.883 128.526C208.379 128.864 208.746 129.221 208.983 129.595Z" fill="#F9F6F2"/>
<path fill-rule="evenodd" clip-rule="evenodd" d="M244.018 43.4355L23.4846 104.376L22.9801 102.526L243.514 41.5855L244.018 43.4355Z" fill="#F9F6F2"/>
<path d="M269.232 53.6348C268.743 52.3819 267.891 51.5365 266.677 51.0986C265.472 50.6581 264.062 50.6611 262.447 51.1077C261.312 51.4217 260.385 51.8635 259.666 52.433C258.948 53.0026 258.454 53.6425 258.185 54.3529C257.915 55.0632 257.879 55.7991 258.077 56.5606C258.249 57.1912 258.54 57.6988 258.95 58.0835C259.37 58.4654 259.874 58.7499 260.462 58.9371C261.047 59.1144 261.673 59.2275 262.339 59.2764C263.005 59.3254 263.667 59.3385 264.324 59.3158L267.337 59.2457C268.545 59.1978 269.734 59.2557 270.905 59.4193C272.086 59.5803 273.187 59.8906 274.207 60.3503C275.237 60.8073 276.13 61.4559 276.886 62.2961C277.641 63.1363 278.198 64.2117 278.556 65.5222C279.04 67.2959 279.016 68.9823 278.483 70.5813C277.949 72.1705 276.933 73.5799 275.437 74.8096C273.948 76.0268 271.999 76.9683 269.591 77.6342C267.251 78.2811 265.121 78.4782 263.199 78.2254C261.287 77.9699 259.655 77.2765 258.305 76.1452C256.963 75.0112 255.979 73.4499 255.353 71.4614L260.712 69.9794C261.078 71.0121 261.64 71.7998 262.399 72.3424C263.158 72.8851 264.039 73.203 265.044 73.2961C266.058 73.3866 267.133 73.2748 268.268 72.9608C269.453 72.6333 270.442 72.169 271.236 71.568C272.037 70.9543 272.605 70.2569 272.939 69.4756C273.271 68.6845 273.323 67.8541 273.096 66.9842C272.871 66.1986 272.464 65.6119 271.874 65.224C271.281 64.8262 270.531 64.5672 269.624 64.447C268.725 64.3142 267.699 64.2587 266.547 64.2806L262.884 64.3398C260.233 64.3841 258.01 63.9548 256.216 63.052C254.429 62.1366 253.24 60.595 252.649 58.4271C252.162 56.6436 252.215 54.9491 252.809 53.3437C253.412 51.7356 254.445 50.332 255.908 49.1328C257.367 47.9237 259.15 47.0282 261.254 46.4463C263.388 45.8562 265.36 45.7136 267.17 46.0186C268.987 46.311 270.535 46.9903 271.816 48.0562C273.093 49.1124 273.98 50.4887 274.474 52.1853L269.232 53.6348Z" fill="#F9F6F2"/>
<path d="M235.831 86.4733L227.571 56.2021L247.129 50.794L248.383 55.3909L234.272 59.2927L236.515 67.5108L249.613 63.8892L250.867 68.486L237.769 72.1077L240.024 80.3702L254.252 76.4359L255.507 81.0327L235.831 86.4733Z" fill="#F9F6F2"/>
<path d="M192.166 65.9941L198.832 64.1508L213.745 83.617L214.098 83.5196L217.04 59.1162L223.706 57.2729L231.966 87.5441L226.739 88.9895L221.064 68.1929L220.785 68.27L218.125 91.276L214.219 92.356L200.246 73.9018L199.967 73.9789L205.654 94.8199L200.426 96.2653L192.166 65.9941Z" fill="#F9F6F2"/>
<path d="M176.435 102.898L170.62 104.506L172.947 71.307L179.671 69.4474L198.533 96.7872L192.719 98.395L178.12 76.5527L177.886 76.6177L176.435 102.898ZM173.387 90.9759L189.245 86.591L190.447 90.9957L174.589 95.3806L173.387 90.9759Z" fill="#F9F6F2"/>
<path d="M158.879 85.5938C158.417 84.8633 157.884 84.2423 157.281 83.7307C156.686 83.2066 156.027 82.8005 155.307 82.5123C154.595 82.2214 153.827 82.0682 153.002 82.0527C152.174 82.0274 151.31 82.1392 150.409 82.3882C148.794 82.8348 147.466 83.6417 146.427 84.8087C145.387 85.9758 144.722 87.4527 144.43 89.2394C144.146 91.0137 144.313 93.034 144.931 95.3004C145.555 97.5865 146.441 99.424 147.588 100.813C148.736 102.202 150.059 103.134 151.557 103.61C153.053 104.076 154.643 104.076 156.326 103.611C157.853 103.188 159.094 102.527 160.049 101.628C161.013 100.725 161.651 99.6479 161.962 98.3961C162.271 97.1345 162.225 95.7696 161.824 94.3014L163.11 94.1525L154.946 96.4099L153.776 92.1235L165.978 88.7495L166.97 92.3856C167.677 94.9771 167.741 97.3705 167.161 99.5656C166.581 101.761 165.471 103.636 163.832 105.191C162.191 106.737 160.127 107.853 157.64 108.541C154.87 109.307 152.267 109.354 149.83 108.681C147.401 107.997 145.283 106.659 143.477 104.668C141.677 102.665 140.342 100.067 139.471 96.8739C138.804 94.4302 138.551 92.1528 138.712 90.0418C138.882 87.9281 139.406 86.0293 140.284 84.3454C141.159 82.6517 142.338 81.2236 143.821 80.0611C145.301 78.8888 147.025 78.0306 148.992 77.4865C150.657 77.0263 152.275 76.8437 153.849 76.9385C155.419 77.0234 156.885 77.3599 158.246 77.9481C159.616 78.5335 160.832 79.3419 161.892 80.3734C162.953 81.4048 163.798 82.6334 164.43 84.0591L158.879 85.5938Z" fill="#F9F6F2"/>
<path d="M118.464 118.925L108.274 121.743L100.013 91.4717L110.409 88.5971C113.395 87.7715 116.125 87.6684 118.599 88.2876C121.081 88.8943 123.207 90.1662 124.978 92.1034C126.749 94.0405 128.063 96.5808 128.921 99.7242C129.781 102.877 129.938 105.748 129.392 108.337C128.855 110.923 127.661 113.123 125.809 114.939C123.966 116.752 121.518 118.081 118.464 118.925ZM112.426 115.492L116.905 114.254C119 113.674 120.642 112.807 121.832 111.651C123.019 110.486 123.756 109.037 124.041 107.305C124.324 105.563 124.149 103.534 123.517 101.218C122.885 98.9026 122.009 97.0786 120.887 95.7461C119.763 94.4038 118.407 93.5441 116.82 93.167C115.24 92.7773 113.431 92.864 111.395 93.427L106.755 94.71L112.426 115.492Z" fill="#F9F6F2"/>
<path d="M101.061 107.46C101.951 110.722 102.106 113.683 101.527 116.344C100.955 118.993 99.7942 121.221 98.0453 123.03C96.3062 124.835 94.12 126.102 91.4868 126.83C88.8536 127.558 86.3264 127.595 83.9053 126.939C81.4912 126.272 79.3613 124.948 77.5156 122.968C75.677 120.975 74.314 118.353 73.4267 115.101C72.5367 111.84 72.3777 108.884 72.9499 106.236C73.5291 103.575 74.6883 101.341 76.4274 99.5358C78.1763 97.7275 80.3674 96.4593 83.0006 95.7311C85.6338 95.003 88.1561 94.9679 90.5674 95.6258C92.9886 96.281 95.1184 97.6049 96.9571 99.5975C98.8028 101.578 100.171 104.198 101.061 107.46ZM95.5838 108.974C94.9573 106.678 94.0716 104.841 92.9268 103.462C91.7891 102.07 90.4835 101.144 89.01 100.682C87.5339 100.211 85.9784 100.201 84.3437 100.653C82.709 101.105 81.3767 101.913 80.3469 103.078C79.3144 104.232 78.6573 105.701 78.3757 107.486C78.1011 109.257 78.2771 111.291 78.9036 113.587C79.5301 115.883 80.4122 117.727 81.5499 119.118C82.6947 120.497 84.0052 121.422 85.4814 121.894C86.9548 122.355 88.5089 122.36 90.1437 121.908C91.7784 121.456 93.112 120.653 94.1445 119.498C95.1743 118.334 95.8265 116.866 96.1011 115.094C96.3827 113.31 96.2103 111.27 95.5838 108.974Z" fill="#F9F6F2"/>
<path d="M71.1073 115.745C71.9973 119.007 72.1527 121.968 71.5735 124.629C71.0014 127.278 69.8408 129.506 68.0919 131.315C66.3528 133.12 64.1666 134.387 61.5334 135.115C58.9002 135.843 56.373 135.88 53.9519 135.225C51.5379 134.557 49.408 133.233 47.5623 131.253C45.7236 129.26 44.3607 126.638 43.4733 123.386C42.5833 120.125 42.4244 117.17 42.9965 114.521C43.5757 111.86 44.7349 109.626 46.474 107.821C48.2229 106.013 50.414 104.744 53.0472 104.016C55.6804 103.288 58.2027 103.253 60.6141 103.911C63.0352 104.566 65.1651 105.89 67.0037 107.883C68.8494 109.863 70.2173 112.484 71.1073 115.745ZM65.6304 117.26C65.0039 114.964 64.1183 113.126 62.9734 111.747C61.8357 110.356 60.5301 109.429 59.0567 108.967C57.5805 108.496 56.0251 108.486 54.3903 108.938C52.7556 109.39 51.4233 110.199 50.3935 111.363C49.361 112.517 48.704 113.987 48.4223 115.771C48.1477 117.542 48.3237 119.576 48.9502 121.872C49.5767 124.168 50.4588 126.012 51.5965 127.403C52.7414 128.782 54.0518 129.708 55.528 130.179C57.0015 130.64 58.5556 130.645 60.1903 130.193C61.825 129.741 63.1587 128.938 64.1911 127.783C65.2209 126.619 65.8731 125.151 66.1477 123.38C66.4294 121.596 66.257 119.556 65.6304 117.26Z" fill="#F9F6F2"/>
<path d="M16.7473 147.054L0 119.13L5.85864 117.51L17.347 138.257L17.626 138.18L17.341 114.335L22.671 112.861L34.5452 133.517L34.8095 133.444L34.1534 109.686L40.012 108.066L39.7854 140.684L34.4113 142.17L22.5952 122.595L22.3603 122.659L22.1214 145.568L16.7473 147.054Z" fill="#F9F6F2"/>
<path fill-rule="evenodd" clip-rule="evenodd" d="M257.359 92.6279L36.8247 153.569L36.3203 151.719L256.854 90.7779L257.359 92.6279Z" fill="#F9F6F2"/>
<path d="M60.6108 82.3428L61.1059 80.5297L67.9382 82.4201L67.9638 82.3265L62.4269 75.6917L62.8748 74.0511L72.8982 76.8243L72.3991 78.6522L65.5717 76.7631L65.5488 76.8469L71.0768 83.4951L70.6342 85.116L60.6108 82.3428Z" fill="#F9F6F2"/>
<path d="M70.1314 63.2154L71.5256 63.7925L70.2478 66.9208L76.0642 69.3282L75.3809 71.0011L68.1703 68.0166L70.1314 63.2154Z" fill="#F9F6F2"/>
<path d="M82.2069 63.6906L73.2363 57.7825L74.2256 56.2604L75.3045 56.9709L75.3628 56.8811C75.2561 56.6969 75.1608 56.4733 75.0769 56.2105C74.9902 55.9457 74.9637 55.6474 74.9974 55.3155C75.0283 54.9817 75.1689 54.6224 75.419 54.2376C75.7487 53.7303 76.1749 53.3576 76.6975 53.1197C77.2191 52.8771 77.8084 52.8011 78.4652 52.8918C79.121 52.9777 79.8114 53.2594 80.5363 53.7368C81.2527 54.2086 81.7846 54.7279 82.132 55.2945C82.4794 55.8612 82.6524 56.4351 82.6508 57.0161C82.6492 57.5972 82.4808 58.1457 82.1454 58.6616C81.9009 59.0379 81.6357 59.309 81.35 59.4749C81.0642 59.6408 80.7844 59.7415 80.5107 59.777C80.236 59.8077 79.9924 59.8122 79.7801 59.7904L79.7385 59.8545L83.2129 62.1428L82.2069 63.6906ZM77.4849 58.413C77.9068 58.6909 78.3152 58.8744 78.7102 58.9636C79.107 59.0499 79.4687 59.0378 79.7953 58.9272C80.1209 58.812 80.3902 58.5904 80.6033 58.2626C80.8256 57.9206 80.9212 57.5744 80.89 57.2242C80.856 56.8721 80.7184 56.5332 80.4772 56.2074C80.2351 55.877 79.9101 55.5775 79.5024 55.3089C79.0974 55.0422 78.6998 54.8638 78.3096 54.7737C77.9193 54.6835 77.5599 54.6952 77.2315 54.8086C76.903 54.922 76.6267 55.1511 76.4026 55.496C76.1877 55.8267 76.0915 56.1643 76.1142 56.509C76.1369 56.8536 76.265 57.1884 76.4987 57.5132C76.7342 57.8352 77.0629 58.1352 77.4849 58.413Z" fill="#F9F6F2"/>
<path d="M85.1693 46.2694L86.8514 44.6914C87.5792 44.0087 88.3073 43.6585 89.0358 43.641C89.7642 43.6234 90.3973 43.9026 90.935 44.4784C91.2809 44.857 91.4984 45.2768 91.5876 45.7379C91.6793 46.1967 91.6316 46.6698 91.4445 47.1572C91.2577 47.6398 90.9216 48.1087 90.4364 48.5639L87.8446 50.9954L82.5293 45.2539L83.8252 44.0382L88.1127 48.6695L89.4087 47.4537C89.7008 47.1797 89.8717 46.8797 89.9214 46.5537C89.9688 46.2252 89.8829 45.9426 89.6638 45.7058C89.4331 45.4566 89.151 45.3418 88.8175 45.3613C88.484 45.3808 88.1712 45.5276 87.8791 45.8016L86.197 47.3796L85.1693 46.2694ZM93.4367 45.7493L88.1215 40.0078L89.4657 38.7468L94.7809 44.4883L93.4367 45.7493Z" fill="#F9F6F2"/>
<path d="M104.175 34.486L104.369 28.2893L106.026 27.3782L109.763 34.2659L108.204 35.1231L105.657 30.4282L105.474 36.6245L103.812 37.5381L100.075 30.6504L101.63 29.7956L104.175 34.486Z" fill="#F9F6F2"/>
<path d="M114.314 29.8435L115.983 29.1063C116.115 29.3677 116.325 29.5224 116.612 29.5704C116.899 29.6185 117.221 29.5638 117.577 29.4063C117.939 29.2462 118.21 29.0318 118.388 28.7632C118.569 28.4901 118.587 28.1898 118.445 27.8623C118.36 27.6689 118.238 27.5201 118.078 27.416C117.917 27.3087 117.732 27.2529 117.523 27.2484C117.314 27.244 117.092 27.2938 116.856 27.3978L115.764 27.8804L115.24 26.678L116.332 26.1954C116.682 26.0407 116.912 25.8426 117.021 25.601C117.133 25.358 117.135 25.1133 117.028 24.8669C116.912 24.6018 116.722 24.429 116.458 24.3486C116.197 24.2668 115.899 24.2998 115.564 24.4477C115.23 24.5955 114.984 24.7951 114.828 25.0465C114.674 25.2966 114.646 25.5437 114.741 25.788L113.082 26.5211C112.906 26.1004 112.871 25.6822 112.978 25.2667C113.088 24.8497 113.312 24.4645 113.649 24.1108C113.99 23.7558 114.42 23.4633 114.941 23.2334C115.499 22.9869 116.017 22.8583 116.496 22.8474C116.976 22.8365 117.391 22.9337 117.743 23.1391C118.094 23.3413 118.358 23.6452 118.534 24.0506C118.704 24.4405 118.724 24.8167 118.594 25.1793C118.463 25.5387 118.216 25.8634 117.855 26.1532L117.887 26.2281C118.176 26.1191 118.466 26.088 118.756 26.1346C119.044 26.1782 119.309 26.2937 119.55 26.4813C119.79 26.6688 119.981 26.9248 120.123 27.2491C120.315 27.6889 120.355 28.1249 120.244 28.5571C120.132 28.9861 119.893 29.3836 119.528 29.7495C119.166 30.1141 118.703 30.421 118.139 30.6701C117.591 30.9124 117.063 31.0468 116.557 31.0731C116.053 31.095 115.606 31.0045 115.214 30.8017C114.823 30.599 114.523 30.2795 114.314 29.8435Z" fill="#F9F6F2"/>
<path d="M130.042 29.6087L129.871 25.8112L130.489 25.783C130.649 25.6461 130.78 25.4645 130.881 25.2382C130.983 25.0086 131.062 24.7407 131.119 24.4346C131.18 24.1249 131.225 23.7802 131.256 23.4003C131.286 23.017 131.31 22.6051 131.327 22.1644L131.426 19.4082L137.055 19.1512L137.339 25.4702L138.546 25.4151L138.717 29.2126L136.943 29.2937L136.84 27.0172L131.744 27.2498L131.847 29.5263L130.042 29.6087ZM132.375 25.6968L135.585 25.5503L135.367 20.7217L133.086 20.8259L133.021 22.0871C132.99 22.9205 132.933 23.6357 132.848 24.2329C132.763 24.8301 132.606 25.3181 132.375 25.6968Z" fill="#F9F6F2"/>
<path d="M146.911 27.4503C146.133 27.3705 145.478 27.1389 144.946 26.7556C144.417 26.3692 144.031 25.8605 143.789 25.2297C143.547 24.5954 143.467 23.8699 143.55 23.0532C143.631 22.2501 143.854 21.5607 144.219 20.9852C144.587 20.4067 145.062 19.9761 145.645 19.6936C146.229 19.4076 146.891 19.3026 147.631 19.3786C148.109 19.4277 148.553 19.5519 148.961 19.7513C149.373 19.9476 149.726 20.2235 150.02 20.579C150.317 20.9347 150.535 21.3714 150.673 21.8889C150.812 22.403 150.846 23.0023 150.777 23.6868L150.72 24.251L144.362 23.5988L144.488 22.3585L149.093 22.831C149.125 22.4782 149.081 22.157 148.961 21.8673C148.841 21.5742 148.656 21.3344 148.406 21.1478C148.16 20.9616 147.862 20.8506 147.511 20.8146C147.138 20.7763 146.8 20.8341 146.499 20.9881C146.198 21.1387 145.954 21.3533 145.765 21.6319C145.581 21.9074 145.47 22.2195 145.431 22.5682L145.321 23.6509C145.275 24.105 145.318 24.5032 145.45 24.8454C145.583 25.1843 145.788 25.4553 146.067 25.6585C146.346 25.8584 146.684 25.9787 147.081 26.0194C147.347 26.0467 147.592 26.0341 147.815 25.9817C148.038 25.9258 148.237 25.8315 148.41 25.6986C148.583 25.5658 148.721 25.3933 148.824 25.1813L150.512 25.5496C150.358 25.9927 150.112 26.3681 149.775 26.6759C149.442 26.9806 149.031 27.2022 148.545 27.3405C148.058 27.4755 147.514 27.5121 146.911 27.4503Z" fill="#F9F6F2"/>
<path d="M155.315 31.8312L158.288 21.4634L160.025 21.9679L159.667 23.2148L159.769 23.2446C159.913 23.0878 160.097 22.9304 160.322 22.7724C160.548 22.6111 160.824 22.4979 161.149 22.4329C161.475 22.3645 161.857 22.3941 162.296 22.5217C162.875 22.6898 163.354 22.9904 163.733 23.4233C164.117 23.8539 164.362 24.3985 164.469 25.0571C164.58 25.7134 164.516 26.4605 164.276 27.2983C164.038 28.1262 163.701 28.7906 163.265 29.2915C162.829 29.7923 162.335 30.1274 161.783 30.2966C161.231 30.4659 160.661 30.465 160.072 30.294C159.643 30.1693 159.308 29.9938 159.066 29.7676C158.825 29.5414 158.647 29.3019 158.533 29.0489C158.423 28.7936 158.347 28.5606 158.305 28.3499L158.232 28.3287L157.08 32.3442L155.315 31.8312ZM158.938 25.7366C158.799 26.2242 158.744 26.6712 158.776 27.0774C158.811 27.4845 158.928 27.829 159.129 28.1108C159.334 28.3902 159.624 28.5842 159.998 28.6929C160.388 28.8063 160.745 28.7965 161.068 28.6636C161.392 28.5274 161.674 28.2954 161.912 27.9676C162.155 27.6375 162.344 27.2368 162.479 26.7655C162.613 26.2975 162.666 25.8625 162.637 25.4605C162.607 25.0585 162.491 24.7162 162.287 24.4334C162.082 24.1507 161.784 23.9522 161.39 23.8379C161.013 23.7283 160.664 23.7351 160.344 23.8582C160.023 23.9813 159.743 24.203 159.503 24.5233C159.266 24.8445 159.078 25.249 158.938 25.7366Z" fill="#F9F6F2"/>
<path d="M171.667 34.6619C170.926 34.4101 170.339 34.0377 169.904 33.5448C169.474 33.0497 169.21 32.4675 169.113 31.7982C169.017 31.1256 169.1 30.4005 169.361 29.6227C169.618 28.8579 169.987 28.2357 170.47 27.7561C170.956 27.2744 171.515 26.9611 172.146 26.816C172.778 26.6678 173.446 26.7136 174.152 26.9534C174.607 27.1082 175.012 27.3284 175.366 27.6142C175.724 27.8979 176.007 28.2459 176.215 28.6582C176.427 29.0716 176.543 29.546 176.563 30.0815C176.584 30.6137 176.486 31.2057 176.267 31.8576L176.087 32.395L170.032 30.3364L170.429 29.1552L174.814 30.6464C174.924 30.3097 174.952 29.9867 174.898 29.6773C174.846 29.3647 174.719 29.0895 174.516 28.8517C174.317 28.615 174.051 28.44 173.718 28.3266C173.362 28.2056 173.02 28.1865 172.692 28.2692C172.366 28.3487 172.08 28.5032 171.835 28.7327C171.594 28.9601 171.417 29.2394 171.302 29.5708L170.956 30.6018C170.811 31.0343 170.765 31.4321 170.818 31.7953C170.872 32.1553 171.013 32.4656 171.24 32.7261C171.468 32.9834 171.771 33.1763 172.149 33.305C172.402 33.3911 172.643 33.4335 172.872 33.4323C173.102 33.4278 173.317 33.3802 173.515 33.2894C173.713 33.1987 173.886 33.0615 174.033 32.8779L175.597 33.6145C175.349 34.0121 175.027 34.3232 174.63 34.5478C174.238 34.7702 173.789 34.8945 173.284 34.9204C172.78 34.9432 172.241 34.857 171.667 34.6619Z" fill="#F9F6F2"/>
<path d="M179.454 39.3127L184.005 32.9404L186.663 34.8642C187.413 35.407 187.898 35.9862 188.116 36.6018C188.338 37.2195 188.256 37.7979 187.871 38.3372C187.616 38.694 187.284 38.8963 186.875 38.9442C186.47 38.9912 186.029 38.9004 185.55 38.6716C185.863 38.9399 186.094 39.235 186.243 39.557C186.395 39.881 186.461 40.2094 186.44 40.5424C186.419 40.8753 186.302 41.1912 186.088 41.4899C185.837 41.8411 185.527 42.0801 185.157 42.2069C184.792 42.3328 184.384 42.3415 183.932 42.2328C183.485 42.1233 183.015 41.8896 182.52 41.5317L179.454 39.3127ZM181.695 39.1414L183.365 40.3493C183.639 40.5482 183.901 40.6393 184.151 40.6226C184.402 40.6032 184.609 40.4801 184.771 40.2533C184.959 39.9906 185.027 39.7279 184.977 39.4652C184.929 39.1997 184.768 38.9676 184.493 38.7687L182.824 37.5608L181.695 39.1414ZM183.518 36.59L184.808 37.5236C185.011 37.6707 185.206 37.7679 185.393 37.8152C185.582 37.8598 185.754 37.8559 185.908 37.8037C186.064 37.7488 186.196 37.6453 186.305 37.4931C186.461 37.2746 186.494 37.0386 186.404 36.7848C186.317 36.5331 186.117 36.2939 185.804 36.0673L184.543 35.1546L183.518 36.59Z" fill="#F9F6F2"/>
<path d="M191.135 48.8119C190.79 48.4553 190.543 48.0725 190.394 47.6632C190.249 47.2541 190.221 46.8442 190.31 46.4335C190.402 46.0253 190.631 45.642 190.997 45.2834C191.313 44.9747 191.63 44.7781 191.95 44.6935C192.269 44.6088 192.589 44.6073 192.908 44.6889C193.228 44.7705 193.542 44.9075 193.85 45.0997C194.163 45.292 194.467 45.5107 194.76 45.7558C195.112 46.0522 195.401 46.29 195.626 46.469C195.853 46.6456 196.041 46.7519 196.188 46.7877C196.341 46.8236 196.48 46.7798 196.607 46.6563L196.628 46.6349C196.903 46.3666 197.036 46.077 197.028 45.7662C197.021 45.4553 196.868 45.146 196.571 44.8383C196.257 44.5135 195.938 44.3247 195.613 44.2719C195.291 44.2216 195.002 44.2573 194.747 44.3789L193.725 42.9697C194.159 42.735 194.599 42.6184 195.044 42.6198C195.492 42.6189 195.929 42.7251 196.357 42.9383C196.787 43.1491 197.192 43.4512 197.572 43.8444C197.834 44.1155 198.063 44.4162 198.259 44.7466C198.456 45.077 198.588 45.4245 198.657 45.7892C198.729 46.1516 198.706 46.521 198.588 46.8975C198.473 47.2765 198.23 47.6476 197.858 48.0109L194.117 51.6725L192.886 50.3976L193.654 49.6461L193.611 49.6021C193.378 49.6735 193.123 49.7024 192.846 49.6888C192.573 49.6754 192.289 49.5991 191.994 49.46C191.704 49.321 191.418 49.105 191.135 48.8119ZM192.436 48.2088C192.693 48.475 192.968 48.6548 193.261 48.748C193.556 48.8389 193.842 48.8514 194.118 48.7855C194.397 48.7219 194.639 48.5893 194.845 48.3874L195.504 47.7428C195.43 47.7345 195.33 47.6945 195.204 47.6229C195.08 47.5537 194.949 47.4687 194.809 47.368C194.669 47.2672 194.533 47.1653 194.401 47.0623C194.268 46.9593 194.153 46.8697 194.056 46.7937C193.838 46.622 193.624 46.4876 193.412 46.3907C193.2 46.2938 192.996 46.2535 192.8 46.27C192.606 46.2841 192.424 46.3743 192.254 46.5405C192.012 46.778 191.915 47.0464 191.963 47.3458C192.011 47.6452 192.169 47.9329 192.436 48.2088Z" fill="#F9F6F2"/>
<path fill-rule="evenodd" clip-rule="evenodd" d="M209.333 47.2469C210.665 49.1313 211.551 50.706 211.884 51.7626L210.521 52.198C210.259 51.3662 209.485 49.9433 208.168 48.0812C206.865 46.2381 205.067 44.0153 202.811 41.5933C198.298 36.749 191.968 31.1282 184.127 26.166C168.446 16.2432 146.764 8.97649 121.458 15.7458C96.0658 22.5382 80.1376 35.4183 70.5481 49.9798C60.9495 64.5549 57.6691 80.8648 57.6691 94.5455H56.2398C56.2398 80.6487 59.5701 64.0456 69.3567 49.1848C79.1524 34.3103 95.3842 21.2317 121.091 14.3553C146.883 7.45586 168.973 14.8772 184.887 24.9479C192.843 29.9825 199.266 35.685 203.853 40.609C206.147 43.071 207.987 45.3436 209.333 47.2469Z" fill="#F9F6F2"/>
<path d="M152.602 129.927L156.806 135.88L163.73 133.695L159.405 139.56L163.609 145.513L156.732 143.185L152.406 149.05L152.481 141.746L145.603 139.417L152.527 137.231L152.602 129.927Z" fill="#F9F6F2"/>
<path d="M128.779 44.7981L132.984 50.7516L139.908 48.5659L135.582 54.431L139.787 60.3845L132.909 58.0558L128.584 63.9209L128.658 56.6167L121.781 54.288L128.705 52.1024L128.779 44.7981Z" fill="#F9F6F2"/>
<path fill-rule="evenodd" clip-rule="evenodd" d="M155.555 0.624467L155.556 0.624902L155.561 0.629564C155.566 0.634188 155.574 0.641841 155.586 0.652407C155.609 0.673542 155.645 0.706325 155.693 0.749831C155.791 0.836853 155.939 0.966705 156.134 1.13199C156.525 1.46266 157.105 1.9345 157.849 2.48849C159.34 3.59784 161.483 5.02918 164.084 6.31663C169.305 8.90075 176.242 10.8426 183.46 8.62872L184.35 8.35578L184.829 9.1588C185.027 9.49141 185.22 9.81717 185.41 10.1363C188.164 14.7685 190.092 18.0113 193.126 20.6135C196.338 23.3694 200.887 25.4717 209.211 27.4328L209.983 27.6147L210.114 28.4018C211.437 36.3316 214.866 41.0035 217.9 43.6921C219.426 45.0435 220.865 45.9056 221.912 46.4267C222.436 46.6872 222.86 46.8619 223.147 46.9695C223.29 47.0233 223.399 47.0603 223.468 47.0828C223.503 47.094 223.527 47.1016 223.542 47.1059C223.549 47.108 223.553 47.1094 223.555 47.1099L223.554 47.1097L223.553 47.1094C223.553 47.1092 223.552 47.109 223.233 48.2641C222.913 49.4193 222.912 49.419 222.912 49.4188L222.91 49.4183L222.905 49.4171L222.894 49.4136C222.884 49.4109 222.872 49.4073 222.857 49.4028C222.827 49.3938 222.787 49.3813 222.736 49.3648C222.635 49.3318 222.493 49.2832 222.315 49.2164C221.959 49.0828 221.459 48.8763 220.857 48.5766C219.652 47.9774 218.032 47.0034 216.326 45.4922C213.006 42.5503 209.414 37.6156 207.904 29.5849C199.895 27.6364 195.106 25.463 191.581 22.4387C188.237 19.5702 186.111 15.9909 183.429 11.474C183.371 11.3764 183.313 11.2784 183.254 11.1799C175.56 13.2198 168.326 11.0882 163.033 8.46863C160.274 7.10325 158.009 5.58951 156.433 4.41698C155.644 3.83003 155.026 3.32672 154.601 2.96749C154.598 2.96469 154.594 2.96189 154.591 2.95911C154.176 3.17673 153.601 3.45924 152.882 3.76858C151.313 4.44282 149.049 5.24712 146.241 5.78295C140.786 6.82385 133.287 6.84832 124.882 2.95872C119.647 8.4615 115.083 10.9241 110.359 11.9518C106.723 12.7428 102.994 12.6671 98.9685 12.5855C97.9657 12.5651 96.9446 12.5444 95.902 12.5366C92.9885 20.1462 86.7664 24.5249 81.3258 26.9954C78.5009 28.2782 75.85 29.0644 73.9058 29.5306C72.9873 29.7508 72.2234 29.9004 71.6694 29.9973C71.6272 30.5006 71.5523 31.1721 71.4195 31.9777C71.1185 33.8039 70.5183 36.3272 69.3202 39.144C67.0052 44.5863 62.4674 51.0966 53.6257 55.7687C55.1549 59.3491 56.1328 63.5871 55.2514 68.3141C54.3312 73.2496 51.4148 78.5554 45.3138 84.101C47.4494 86.003 48.7158 87.6107 49.4047 89.465C50.1656 91.5131 50.1654 93.7465 50.1651 96.6487L50.1651 96.8244H47.7829C47.7829 93.6974 47.767 91.9028 47.1734 90.305C46.5997 88.7608 45.4272 87.2769 42.7363 85.0392L41.645 84.1317L42.7197 83.2044C49.2447 77.5744 52.0649 72.4047 52.9101 67.8717C53.7561 63.3343 52.6575 59.2532 50.9951 55.7332L50.4898 54.6634L51.5465 54.1419C60.4858 49.7296 64.9179 43.4013 67.1302 38.2001C68.2399 35.5912 68.7936 33.2585 69.0695 31.5851C69.2073 30.749 69.2754 30.0796 69.3091 29.6253C69.3259 29.3983 69.3341 29.2252 69.3381 29.1122C69.3401 29.0557 69.341 29.0143 69.3415 28.9886C69.3417 28.9758 69.3418 28.967 69.3418 28.9622L69.3419 28.96V28.9589L69.3419 28.9582L69.3419 27.8934L70.3934 27.7692L70.3942 27.7691L70.4012 27.7682C70.4039 27.7679 70.4072 27.7675 70.4112 27.767C70.4176 27.7662 70.4257 27.7651 70.4356 27.7639C70.4674 27.7597 70.5169 27.7531 70.5831 27.7436C70.7155 27.7246 70.9146 27.6943 71.1722 27.6501C71.6877 27.5617 72.4364 27.4178 73.3538 27.1978C75.1914 26.7572 77.6921 26.0147 80.3462 24.8095C85.673 22.3907 91.4727 18.1795 93.9433 10.9446L94.2197 10.1354H95.0697C96.5354 10.1354 97.9134 10.1629 99.2256 10.189C103.169 10.2676 106.517 10.3343 109.856 9.6079C114.184 8.66633 118.504 6.36317 123.736 0.686928L124.336 0.0358295L125.13 0.424014C133.318 4.42927 140.584 4.42161 145.797 3.42687C148.409 2.92855 150.507 2.18162 151.946 1.56317C152.665 1.25414 153.218 0.977834 153.586 0.78188C153.77 0.68393 153.908 0.606147 153.997 0.554505C154.041 0.528688 154.074 0.509416 154.093 0.497436C154.103 0.491447 154.11 0.487282 154.114 0.485036L154.115 0.484145L154.117 0.483258L154.117 0.483116L154.889 0L155.555 0.624467Z" fill="#F9F6F2"/>
<path fill-rule="evenodd" clip-rule="evenodd" d="M125.572 195.449L125.571 195.449L125.566 195.444L125.557 195.435L125.541 195.42C125.518 195.399 125.482 195.365 125.433 195.321C125.336 195.232 125.187 195.099 124.992 194.93C124.6 194.591 124.019 194.108 123.272 193.541C121.777 192.404 119.627 190.936 117.013 189.61C111.766 186.948 104.784 184.924 97.4838 187.109L96.589 187.377L96.1168 186.567C95.9194 186.228 95.7265 185.896 95.5376 185.571C92.7972 180.855 90.8773 177.551 87.8368 174.887C84.6167 172.067 80.0442 169.899 71.664 167.844L70.8939 167.656L70.7695 166.868C69.4985 158.815 66.0746 154.05 63.0336 151.299C61.5051 149.916 60.0596 149.03 59.0067 148.493C58.4805 148.225 58.0535 148.044 57.765 147.933C57.6208 147.877 57.5114 147.839 57.4417 147.815C57.4069 147.804 57.382 147.796 57.3677 147.791C57.3605 147.789 57.356 147.788 57.3542 147.787L57.3548 147.787L57.3558 147.788C57.3565 147.788 57.3571 147.788 57.687 146.636C58.017 145.484 58.0177 145.484 58.0185 145.484L58.0203 145.485L58.0248 145.486L58.0368 145.49C58.0462 145.492 58.0584 145.496 58.0733 145.501C58.0966 145.508 58.1264 145.518 58.1626 145.53C58.1728 145.533 58.1836 145.537 58.1949 145.54C58.2968 145.575 58.4397 145.625 58.6186 145.694C58.9763 145.832 59.4782 146.045 60.0832 146.354C61.2927 146.971 62.9185 147.97 64.6259 149.515C67.9508 152.523 71.5339 157.552 72.9899 165.704C81.0563 167.744 85.8696 169.985 89.4005 173.078C92.7485 176.011 94.8625 179.653 97.5321 184.253C97.591 184.354 97.6502 184.456 97.7096 184.559C105.487 182.552 112.767 184.771 118.085 187.468C120.856 188.874 123.128 190.426 124.708 191.627C125.498 192.228 126.118 192.743 126.543 193.11C126.548 193.114 126.553 193.118 126.557 193.122C126.978 192.905 127.56 192.622 128.291 192.314C129.878 191.643 132.168 190.847 135.004 190.327C140.514 189.316 148.079 189.352 156.525 193.363C161.849 187.827 166.473 185.369 171.245 184.365C174.918 183.593 178.679 183.7 182.738 183.815C183.751 183.844 184.783 183.874 185.837 183.89C188.833 176.203 195.142 171.815 200.652 169.354C203.511 168.078 206.19 167.302 208.155 166.846C209.088 166.629 209.862 166.483 210.422 166.39C210.469 165.879 210.55 165.195 210.691 164.374C211.009 162.527 211.635 159.976 212.865 157.133C215.243 151.637 219.873 145.075 228.836 140.412C227.319 136.77 226.363 132.466 227.291 127.681C228.258 122.688 231.244 117.333 237.451 111.758C235.304 109.808 234.037 108.167 233.357 106.282C232.607 104.204 232.625 101.944 232.649 99.0008L232.65 98.8252L235.032 98.8443C235.007 102.012 235.009 103.835 235.596 105.463C236.164 107.038 237.337 108.553 240.034 110.843L241.111 111.757L240.036 112.674C233.408 118.328 230.519 123.547 229.629 128.14C228.738 132.738 229.815 136.887 231.464 140.47L231.957 141.541L230.902 142.054C221.848 146.454 217.324 152.834 215.049 158.09C213.908 160.727 213.33 163.088 213.039 164.783C212.893 165.63 212.818 166.309 212.781 166.769C212.762 167 212.752 167.175 212.747 167.29C212.746 167.315 212.745 167.337 212.745 167.356C212.744 167.381 212.743 167.401 212.743 167.415C212.743 167.429 212.743 167.438 212.742 167.442L212.742 167.445L212.742 167.446L212.742 167.447L212.734 168.511L211.682 168.627L211.681 168.627L211.674 168.628C211.667 168.629 211.656 168.63 211.639 168.632C211.607 168.636 211.557 168.642 211.49 168.652C211.357 168.67 211.156 168.699 210.895 168.742C210.375 168.827 209.618 168.967 208.691 169.182C206.834 169.614 204.305 170.346 201.618 171.546C196.225 173.955 190.337 178.177 187.785 185.496L187.503 186.305L186.652 186.298C185.174 186.286 183.784 186.247 182.461 186.21C178.484 186.098 175.107 186.003 171.732 186.713C167.358 187.632 162.98 189.932 157.656 195.644L157.05 196.295L156.256 195.897C148.028 191.771 140.698 191.72 135.431 192.686C132.792 193.17 130.669 193.91 129.212 194.525C128.485 194.832 127.925 195.108 127.552 195.304C127.365 195.402 127.226 195.479 127.135 195.531C127.09 195.557 127.057 195.576 127.037 195.588C127.027 195.594 127.02 195.598 127.016 195.601L127.015 195.602L127.014 195.602L127.014 195.602L127.013 195.603L126.235 196.083L125.572 195.449Z" fill="#F9F6F2"/>
</svg>
