<svg width="21" height="21" viewBox="0 0 21 21" fill="none" xmlns="http://www.w3.org/2000/svg">
<path d="M4.61021 0.745004L4.60902 0.745521C2.81189 1.51598 1.29593 3.48422 1.36666 5.4295C1.41703 6.77237 1.94482 10.7227 6.11051 14.8894C6.11054 14.8894 6.11057 14.8894 6.11059 14.8895M4.61021 0.745004L20.71 16.598C19.873 18.551 17.755 20.214 15.552 20.133C14.112 20.08 10.031 19.516 5.757 15.243L6.11059 14.8895M4.61021 0.745004C4.76461 0.678336 4.93368 0.652954 5.10084 0.671347C5.2678 0.689719 5.42713 0.751129 5.56322 0.849563C6.92907 1.84518 7.91815 3.30576 8.81023 4.62309C8.90657 4.76536 9.00178 4.90595 9.09621 5.04411L9.0964 5.04439M4.61021 0.745004L9.0964 5.04439M6.11059 14.8895C10.2777 19.0555 14.2292 19.5839 15.5704 19.6333C17.5236 19.7051 19.4764 18.2071 20.2504 16.401L20.251 16.3997C20.3199 16.2402 20.3446 16.0651 20.3227 15.8927C20.3008 15.7204 20.2329 15.5571 20.1263 15.4199L6.11059 14.8895ZM9.0964 5.04439C9.23564 5.24782 9.29518 5.49536 9.26366 5.73985C9.23287 5.97873 9.11726 6.19838 8.93823 6.35894L7.00611 7.79391C6.81535 7.93283 6.68108 8.13595 6.62805 8.36598C6.57473 8.59729 6.60718 8.84009 6.71936 9.04928L6.71934 9.04929M9.0964 5.04439L6.71934 9.04929M6.71934 9.04929L6.72197 9.05408C7.17755 9.88174 7.98996 11.121 8.93445 12.0655C9.87811 13.0092 11.173 13.8727 12.0515 14.3758L12.0515 14.3759L12.0553 14.378C12.2744 14.501 12.5325 14.5354 12.7762 14.4741C13.0186 14.4131 13.2286 14.2621 13.3636 14.0519M6.71934 9.04929L13.3636 14.0519M13.3636 14.0519L14.6222 12.1363C14.7778 11.9356 15.0039 11.8013 15.2549 11.7608C15.5106 11.7195 15.7725 11.7787 15.9855 11.9261C16.0708 11.9852 16.1566 12.0444 16.2427 12.1039C17.5973 13.039 19.0493 14.0414 20.1263 15.4199L13.3636 14.0519Z" stroke="#D9D9D9"/>
</svg>
