<svg width="26" height="18" viewBox="0 0 26 18" fill="none" xmlns="http://www.w3.org/2000/svg">
<path fill-rule="evenodd" clip-rule="evenodd" d="M12.2033 17.4438L12.215 17.4453L12.291 17.4716L12.3124 17.4746L12.3274 17.4716L12.4033 17.4453C12.4147 17.4428 12.4233 17.4441 12.429 17.4491L12.4333 17.4566L12.4515 17.7776L12.4461 17.7926L12.4354 17.8023L12.3242 17.8578L12.3081 17.8608L12.2953 17.8578L12.184 17.8023L12.1712 17.7903L12.1669 17.7776L12.1851 17.4573C12.1879 17.4493 12.194 17.4448 12.2033 17.4438ZM11.9198 17.3591L11.9337 17.3606L12.1316 17.4303L12.1423 17.4378L12.1455 17.4461L12.1262 17.7686L12.1209 17.7776L12.1123 17.7828L11.8973 17.8526C11.8838 17.8551 11.8734 17.8531 11.8663 17.8466L11.862 17.8361L11.8984 17.3756C11.9019 17.3666 11.9091 17.3611 11.9198 17.3591ZM12.6847 17.3606C12.6894 17.3586 12.695 17.3579 12.7004 17.3588C12.7058 17.3596 12.7105 17.3619 12.7136 17.3651L12.72 17.3756L12.7563 17.8361C12.7556 17.8451 12.7496 17.8511 12.7382 17.8541L12.7221 17.8526L12.5071 17.7828L12.4964 17.7768L12.4921 17.7686L12.4739 17.4461L12.4771 17.4371L12.4878 17.4296L12.6847 17.3606Z" fill="#F9F6F2"/>
<path fill-rule="evenodd" clip-rule="evenodd" d="M7.96789 16.5996C9.50839 16.5599 13.8742 16.1369 18.4465 12.9321C23.0178 9.72661 23.6201 6.66661 23.6779 5.58586C23.7634 3.93886 21.964 2.33911 19.8854 1.71436C19.6351 1.63858 19.361 1.60973 19.09 1.63064C18.819 1.65154 18.5604 1.72149 18.3396 1.83361C16.6279 2.70811 15.4468 4.03111 14.4327 5.07136C14.2095 5.2999 14.1141 5.57802 14.1646 5.8527C14.2151 6.12739 14.408 6.37945 14.7065 6.56086L16.7937 7.64761C16.8945 7.69866 16.9655 7.77363 16.9935 7.8586C17.0214 7.94357 17.0044 8.03276 16.9456 8.10961C16.4728 8.71186 15.6319 9.60886 14.6691 10.2839C13.7063 10.9589 12.3658 11.5874 11.4469 11.9564C11.3316 12.0017 11.196 12.0144 11.0679 11.9918C10.9397 11.9692 10.8288 11.913 10.7579 11.8349L9.39927 10.3851C9.14949 10.1525 8.78101 9.99666 8.37101 9.95024C7.96101 9.90383 7.54129 9.97043 7.19977 10.1361C5.69457 10.8666 3.93796 11.6804 2.65206 12.8346C2.47915 12.9905 2.36917 13.1762 2.3336 13.3721C2.29803 13.568 2.33819 13.767 2.44987 13.9484C3.34529 15.4131 5.61112 16.6604 7.96789 16.5996Z" fill="#F9F6F2"/>
</svg>
