<svg width="26" height="18" viewBox="0 0 26 18" fill="none" xmlns="http://www.w3.org/2000/svg">
<path fill-rule="evenodd" clip-rule="evenodd" d="M13.4719 17.4438L13.4601 17.4453L13.3842 17.4716L13.3628 17.4746L13.3478 17.4716L13.2719 17.4453C13.2604 17.4428 13.2519 17.4441 13.2462 17.4491L13.2419 17.4566L13.2237 17.7776L13.2291 17.7926L13.2398 17.8023L13.351 17.8578L13.3671 17.8608L13.3799 17.8578L13.4912 17.8023L13.504 17.7903L13.5083 17.7776L13.4901 17.4573C13.4872 17.4493 13.4812 17.4448 13.4719 17.4438ZM13.7554 17.3591L13.7415 17.3606L13.5436 17.4303L13.5329 17.4378L13.5297 17.4461L13.5489 17.7686L13.5543 17.7776L13.5628 17.7828L13.7779 17.8526C13.7914 17.8551 13.8018 17.8531 13.8089 17.8466L13.8132 17.8361L13.7768 17.3756C13.7732 17.3666 13.7661 17.3611 13.7554 17.3591ZM12.9905 17.3606C12.9858 17.3586 12.9802 17.3579 12.9748 17.3588C12.9694 17.3596 12.9647 17.3619 12.9616 17.3651L12.9552 17.3756L12.9188 17.8361C12.9195 17.8451 12.9256 17.8511 12.937 17.8541L12.9531 17.8526L13.1681 17.7828L13.1788 17.7768L13.1831 17.7686L13.2012 17.4461L13.198 17.4371L13.1873 17.4296L12.9905 17.3606Z" fill="#F9F6F2"/>
<path fill-rule="evenodd" clip-rule="evenodd" d="M17.7073 16.5996C16.1668 16.5599 11.8009 16.1369 7.22863 12.9321C2.65738 9.72661 2.05509 6.66661 1.99732 5.58586C1.91173 3.93886 3.71113 2.33911 5.78975 1.71436C6.04006 1.63858 6.31416 1.60973 6.58518 1.63064C6.85619 1.65154 7.11479 1.72149 7.3356 1.83361C9.04728 2.70811 10.2283 4.03111 11.2425 5.07136C11.4656 5.2999 11.5611 5.57802 11.5105 5.8527C11.46 6.12739 11.2672 6.37945 10.9686 6.56086L8.88146 7.64761C8.78062 7.69866 8.70964 7.77363 8.6817 7.8586C8.65377 7.94357 8.67077 8.03276 8.72955 8.10961C9.2024 8.71186 10.0433 9.60886 11.0061 10.2839C11.9689 10.9589 13.3094 11.5874 14.2283 11.9564C14.3435 12.0017 14.4791 12.0144 14.6073 11.9918C14.7354 11.9692 14.8464 11.913 14.9173 11.8349L16.2759 10.3851C16.5257 10.1525 16.8942 9.99666 17.3042 9.95024C17.7142 9.90383 18.1339 9.97043 18.4754 10.1361C19.9806 10.8666 21.7372 11.6804 23.0231 12.8346C23.196 12.9905 23.306 13.1762 23.3416 13.3721C23.3771 13.568 23.337 13.767 23.2253 13.9484C22.3299 15.4131 20.064 16.6604 17.7073 16.5996Z" fill="#F9F6F2"/>
</svg>
