<svg width="24" height="24" viewBox="0 0 24 24" fill="none" xmlns="http://www.w3.org/2000/svg">
<path d="M5.61021 2.745L5.60902 2.74552C3.81189 3.51598 2.29593 5.48422 2.36666 7.4295C2.41703 8.77237 2.94482 12.7227 7.11051 16.8894C7.11054 16.8894 7.11057 16.8894 7.11059 16.8895M5.61021 2.745L21.71 18.598C20.873 20.551 18.755 22.214 16.552 22.133C15.112 22.08 11.031 21.516 6.757 17.243L7.11059 16.8895M5.61021 2.745C5.76461 2.67834 5.93368 2.65295 6.10084 2.67135C6.2678 2.68972 6.42713 2.75113 6.56322 2.84956C7.92907 3.84518 8.91815 5.30576 9.81023 6.62309C9.90657 6.76536 10.0018 6.90595 10.0962 7.04411L10.0964 7.04439M5.61021 2.745L10.0964 7.04439M7.11059 16.8895C11.2777 21.0555 15.2292 21.5839 16.5704 21.6333C18.5236 21.7051 20.4764 20.2071 21.2504 18.401L21.251 18.3997C21.3199 18.2402 21.3446 18.0651 21.3227 17.8927C21.3008 17.7204 21.2329 17.5571 21.1263 17.4199L7.11059 16.8895ZM10.0964 7.04439C10.2356 7.24782 10.2952 7.49536 10.2637 7.73985C10.2329 7.97873 10.1173 8.19838 9.93823 8.35894L8.00611 9.79391C7.81535 9.93283 7.68108 10.1359 7.62805 10.366C7.57473 10.5973 7.60718 10.8401 7.71936 11.0493L7.71934 11.0493M10.0964 7.04439L7.71934 11.0493M7.71934 11.0493L7.72197 11.0541C8.17755 11.8817 8.98996 13.121 9.93445 14.0655C10.8781 15.0092 12.173 15.8727 13.0515 16.3758L13.0515 16.3759L13.0553 16.378C13.2744 16.501 13.5325 16.5354 13.7762 16.4741C14.0186 16.4131 14.2286 16.2621 14.3636 16.0519M7.71934 11.0493L14.3636 16.0519M14.3636 16.0519L15.6222 14.1363C15.7778 13.9356 16.0039 13.8013 16.2549 13.7608C16.5106 13.7195 16.7725 13.7787 16.9855 13.9261C17.0708 13.9852 17.1566 14.0444 17.2427 14.1039C18.5973 15.039 20.0493 16.0414 21.1263 17.4199L14.3636 16.0519Z" stroke="#D9D9D9"/>
</svg>
