<svg width="57" height="57" viewBox="0 0 57 57" fill="none" xmlns="http://www.w3.org/2000/svg">
<path d="M28.5 0C22.8632 0 17.3531 1.6715 12.6663 4.80311C7.97946 7.93473 4.32654 12.3858 2.16945 17.5935C0.0123486 22.8012 -0.552046 28.5316 0.547632 34.0601C1.64731 39.5885 4.36167 44.6667 8.34747 48.6525C12.3333 52.6383 17.4115 55.3527 22.9399 56.4524C28.4684 57.552 34.1988 56.9877 39.4065 54.8306C44.6142 52.6735 49.0653 49.0205 52.1969 44.3337C55.3285 39.6469 57 34.1368 57 28.5C57 24.7573 56.2628 21.0513 54.8306 17.5935C53.3983 14.1357 51.299 10.9939 48.6525 8.34745C46.0061 5.70099 42.8643 3.60169 39.4065 2.16943C35.9487 0.737174 32.2427 0 28.5 0ZM37.563 43.1832C37.4566 43.4494 37.2945 43.6899 37.0876 43.8883C36.8806 44.0867 36.6336 44.2385 36.3631 44.3335C36.0926 44.4286 35.8048 44.4646 35.5192 44.4392C35.2337 44.4138 34.9568 44.3276 34.7073 44.1864L26.9696 38.1729L22.0049 42.7557C21.8896 42.8408 21.7548 42.8955 21.6129 42.915C21.471 42.9344 21.3265 42.9178 21.1926 42.8668L22.1445 34.3482L22.173 34.3738L22.193 34.2057C22.193 34.2057 36.1152 21.5289 36.6824 20.9902C37.2581 20.4516 37.0671 20.3347 37.0671 20.3347C37.1013 19.6792 36.0383 20.3347 36.0383 20.3347L17.5902 32.2021L9.90946 29.5858C9.90946 29.5858 8.72956 29.164 8.61841 28.2321C8.50156 27.3087 9.94651 26.8071 9.94651 26.8071L40.49 14.6718C40.49 14.6718 43.0008 13.5546 43.0008 15.4071L37.563 43.1832Z" fill="#F9F6F2"/>
</svg>
