<svg width="57" height="57" viewBox="0 0 57 57" fill="none" xmlns="http://www.w3.org/2000/svg">
<path d="M28.5 0C12.7597 0 0 12.7597 0 28.5C0 44.2403 12.7597 57 28.5 57C44.2403 57 57 44.2403 57 28.5C57 12.7597 44.2403 0 28.5 0ZM39.4606 32.1545C39.4606 32.1545 41.9811 34.6423 42.6016 35.7972C42.6194 35.8229 42.6303 35.8427 42.6342 35.8566C42.8856 36.2781 42.9479 36.6116 42.8213 36.857C42.6134 37.2667 41.9009 37.4686 41.6575 37.4864H37.2044C36.8956 37.4864 36.2484 37.4062 35.4647 36.8659C34.862 36.4444 34.2683 35.7527 33.6894 35.0788C32.8255 34.0753 32.0773 33.2084 31.3233 33.2084C31.2275 33.208 31.1323 33.2231 31.0413 33.253C30.4713 33.437 29.7409 34.2505 29.7409 36.4177C29.7409 37.0945 29.2066 37.4834 28.8295 37.4834H26.79C26.0953 37.4834 22.4764 37.24 19.2702 33.8586C15.3455 29.7172 11.8127 21.4106 11.783 21.3334C11.5603 20.7961 12.0205 20.5081 12.5222 20.5081H17.0198C17.6195 20.5081 17.8155 20.8733 17.952 21.1969C18.1123 21.5739 18.7002 23.0731 19.665 24.7594C21.2295 27.5084 22.1884 28.6247 22.9573 28.6247C23.1015 28.623 23.2431 28.5863 23.37 28.5178C24.3734 27.9597 24.1864 24.3823 24.1419 23.6402C24.1419 23.5006 24.1389 22.04 23.6253 21.3394C23.2572 20.8317 22.6308 20.6388 22.2508 20.5675C22.4046 20.3553 22.6072 20.1832 22.8416 20.0658C23.5303 19.7214 24.7713 19.6709 26.0033 19.6709H26.6891C28.025 19.6887 28.3694 19.7748 28.8533 19.8966C29.833 20.1311 29.8538 20.7634 29.7677 22.9277C29.7409 23.5422 29.7142 24.2369 29.7142 25.0563L29.7053 25.6262C29.6756 26.7277 29.64 27.9775 30.4178 28.4911C30.5181 28.5572 30.6361 28.5914 30.7563 28.5891C31.0264 28.5891 31.8398 28.5891 34.0427 24.8098C34.7195 23.5921 35.3097 22.3283 35.8091 21.0277C35.8536 20.9505 35.9842 20.713 36.1386 20.6209C36.2537 20.5662 36.3793 20.5369 36.5067 20.5348H41.7941C42.37 20.5348 42.7648 20.6209 42.8391 20.8436C42.9697 21.1969 42.8153 22.2745 40.4017 25.5431L39.3241 26.9652C37.1361 29.833 37.1361 29.9784 39.4606 32.1545Z" fill="#F9F6F2"/>
</svg>
