<svg xmlns="http://www.w3.org/2000/svg" width="50" height="35" fill="none"><path fill="#000" fill-rule="evenodd" d="M12.87 26.292c-.238-.326-.396-.598-.456-.782l.242-.08c.046.144.184.389.418.71.232.319.552.702.954 1.12a16.986 16.986 0 0 0 3.323 2.66c2.787 1.71 6.64 2.957 11.129 1.774 4.503-1.188 7.324-3.424 9.019-5.947 1.696-2.526 2.27-5.348 2.264-7.714h.255c.006 2.405-.578 5.28-2.308 7.857-1.733 2.579-4.608 4.85-9.166 6.051-4.573 1.206-8.497-.067-11.326-1.802a17.246 17.246 0 0 1-3.373-2.701 11.372 11.372 0 0 1-.976-1.146Z" clip-rule="evenodd"/><path fill="#000" d="m17.284 28.767-.007-1.018-.132-.098-.482.652-.269-.2 1.103-1.493.27.2-.454.614.067.05.982-.219.33.248-1.089.242.012 1.269-.331-.247ZM18.87 29.713a.58.58 0 0 1-.194-.145.392.392 0 0 1-.09-.2.416.416 0 0 1 .043-.234.393.393 0 0 1 .122-.157.334.334 0 0 1 .16-.061.594.594 0 0 1 .182.009c.064.012.128.03.192.052.077.027.14.049.188.064a.293.293 0 0 0 .114.018c.028-.004.048-.02.061-.048l.003-.005a.207.207 0 0 0 .013-.17c-.021-.05-.066-.093-.134-.125a.31.31 0 0 0-.195-.034.26.26 0 0 0-.138.072l-.257-.17a.488.488 0 0 1 .436-.17.866.866 0 0 1 .43.181.563.563 0 0 1 .13.148.393.393 0 0 1 .058.189.479.479 0 0 1-.053.23l-.396.845-.285-.135.082-.173-.01-.005a.399.399 0 0 1-.278.078.539.539 0 0 1-.184-.054Zm.18-.182c.06.028.116.04.17.038a.287.287 0 0 0 .146-.048.268.268 0 0 0 .096-.111l.07-.15a.153.153 0 0 1-.057 0 .74.74 0 0 1-.082-.018 2.393 2.393 0 0 1-.161-.048.57.57 0 0 0-.132-.027.217.217 0 0 0-.11.018.155.155 0 0 0-.074.08.157.157 0 0 0 .002.152c.026.047.07.085.132.114ZM20.694 30.553l.057-.264.047.01a.162.162 0 0 0 .094-.003.178.178 0 0 0 .078-.067.64.64 0 0 0 .07-.144c.024-.061.048-.14.073-.234l.158-.596.987.223-.304 1.36-.309-.07.246-1.097-.389-.088-.119.434a1.64 1.64 0 0 1-.104.286.638.638 0 0 1-.128.186.345.345 0 0 1-.16.09.44.44 0 0 1-.199-.004l-.098-.022ZM23.62 30.657l.63-.902.334.027-.111 1.39-.315-.025.076-.948-.628.903-.336-.027.111-1.39.315.026-.076.946ZM28.51 30.218l.23-1.077.32-.106.436 1.324-.3.1-.298-.903-.228 1.077-.32.107-.436-1.324.3-.1.296.902ZM26.707 30.262l.02.269-.737.054-.02-.269.737-.054Zm-.677-.513.102 1.39-.315.024-.101-1.39.314-.024Zm.85-.062.101 1.39-.313.023-.102-1.39.314-.023ZM31.185 28.792l.134.233-.64.372-.134-.234.64-.371Zm-.831-.165.694 1.207-.273.159-.694-1.208.273-.158Zm.737-.428.694 1.207-.272.158-.694-1.207.272-.158ZM32.753 27.14l.163.214-.476.364.678.895-.255.195-.84-1.11.73-.558ZM34.71 27.839l-1.32-1.383.231-.224.16.166.013-.013a.606.606 0 0 1-.023-.128.383.383 0 0 1 .022-.158.43.43 0 0 1 .116-.17.528.528 0 0 1 .581-.11c.11.041.22.118.326.23.105.11.177.221.215.333a.576.576 0 0 1 .021.32.527.527 0 0 1-.153.264.402.402 0 0 1-.328.127.62.62 0 0 1-.127-.027l-.01.01.512.535-.236.228Zm-.609-1.104a.671.671 0 0 0 .19.145c.066.03.13.043.19.037a.282.282 0 0 0 .167-.082.286.286 0 0 0 .09-.169.36.36 0 0 0-.03-.192.668.668 0 0 0-.134-.195.662.662 0 0 0-.185-.14.343.343 0 0 0-.189-.038.288.288 0 0 0-.17.086.29.29 0 0 0-.091.164c-.01.06 0 .123.027.189.028.065.073.13.135.195ZM36.34 25.21a.58.58 0 0 1-.17.174.386.386 0 0 1-.209.062.41.41 0 0 1-.225-.076.34.34 0 0 1-.176-.31.603.603 0 0 1 .034-.18c.021-.063.047-.124.078-.184.038-.074.068-.133.09-.18a.297.297 0 0 0 .033-.11c0-.028-.012-.05-.038-.068l-.005-.003a.203.203 0 0 0-.165-.036c-.054.013-.101.052-.143.116a.316.316 0 0 0-.06.189.263.263 0 0 0 .051.147l-.203.232a.49.49 0 0 1-.107-.458.872.872 0 0 1 .239-.402.56.56 0 0 1 .164-.11.388.388 0 0 1 .194-.03c.07.006.143.034.22.085l.776.512-.172.264-.16-.105-.006.009a.402.402 0 0 1 .038.288.547.547 0 0 1-.078.175Zm-.155-.203a.359.359 0 0 0 .062-.165.29.29 0 0 0-.027-.151.268.268 0 0 0-.097-.112l-.136-.09a.156.156 0 0 1-.01.057.755.755 0 0 1-.028.079 2.446 2.446 0 0 1-.037.083l-.033.07a.57.57 0 0 0-.045.128.22.22 0 0 0 .003.112c.01.033.032.061.067.085.05.033.1.04.15.02a.287.287 0 0 0 .131-.116ZM37.625 23.704l-.616-.268.043-.102a.272.272 0 0 0-.056-.105.643.643 0 0 0-.109-.1 1.594 1.594 0 0 0-.154-.103 5.662 5.662 0 0 0-.19-.108l-.43-.23.397-.925 1.026.446.086-.199.617.268-.126.292-.37-.16-.36.837.37.16-.128.297Zm-.44-.68.227-.527-.784-.34-.161.374.195.109c.13.07.24.134.328.195.088.06.153.123.196.19Z"/><path fill="#000" fill-rule="evenodd" d="M43.42 7.717 4.179 18.544l-.09-.329 39.24-10.827.09.329Z" clip-rule="evenodd"/><path fill="#000" d="M47.906 9.529a.742.742 0 0 0-.455-.45c-.214-.08-.465-.079-.752 0a1.38 1.38 0 0 0-.495.236.802.802 0 0 0-.264.341.632.632 0 0 0 .137.663.718.718 0 0 0 .269.152c.104.031.215.051.334.06.118.009.236.011.353.007l.536-.012c.215-.009.426.001.635.03.21.03.406.084.587.166.184.081.343.196.477.346.134.149.233.34.297.573a1.52 1.52 0 0 1-.013.899 1.656 1.656 0 0 1-.542.75c-.265.217-.612.384-1.04.503-.416.115-.795.15-1.137.105a1.67 1.67 0 0 1-.871-.37c-.239-.201-.414-.479-.526-.832l.954-.263a.844.844 0 0 0 .3.42.943.943 0 0 0 .47.169c.181.016.373-.004.575-.06.21-.058.386-.14.528-.247a.935.935 0 0 0 .303-.372.674.674 0 0 0 .028-.443.533.533 0 0 0-.218-.312.932.932 0 0 0-.4-.138 3.36 3.36 0 0 0-.548-.03l-.651.01c-.472.008-.868-.068-1.187-.228-.318-.163-.53-.437-.635-.822a1.445 1.445 0 0 1 .029-.903c.107-.286.29-.535.551-.748.26-.215.577-.374.952-.477.38-.105.73-.13 1.052-.076.323.052.599.172.827.362.227.187.385.432.473.733l-.933.258ZM41.963 15.363l-1.47-5.378 3.48-.961.223.817-2.51.693.398 1.46 2.331-.643.223.816-2.33.644.4 1.468 2.533-.7.223.817-3.501.967ZM34.193 11.725l1.186-.328 2.654 3.459.063-.018.523-4.335 1.186-.328 1.47 5.378-.93.257-1.01-3.695-.05.014-.473 4.087-.695.192-2.486-3.279-.05.014 1.012 3.703-.93.257-1.47-5.378ZM31.394 18.281l-1.034.286.413-5.898 1.197-.33 3.356 4.857-1.034.285-2.598-3.88-.042.011-.258 4.67Zm-.542-2.118 2.821-.779.214.783-2.821.779-.214-.783ZM28.27 15.207a1.442 1.442 0 0 0-.284-.33 1.208 1.208 0 0 0-.351-.217 1.134 1.134 0 0 0-.41-.082 1.554 1.554 0 0 0-.462.06c-.287.079-.523.222-.708.43-.185.207-.304.47-.356.787-.05.315-.02.674.09 1.077.11.406.268.732.472.979.204.247.44.412.707.497.266.083.549.083.848 0 .272-.075.493-.192.662-.352.172-.16.285-.352.34-.574a1.435 1.435 0 0 0-.024-.728l.23-.026-1.454.4-.208-.76 2.171-.6.177.646c.126.46.137.885.034 1.275-.103.39-.3.724-.592 1-.293.274-.66.473-1.102.595-.493.136-.956.144-1.39.025a2.379 2.379 0 0 1-1.13-.713c-.32-.356-.558-.818-.713-1.385a3.576 3.576 0 0 1-.135-1.214c.03-.375.123-.713.28-1.012.155-.3.365-.554.629-.76.263-.21.57-.362.92-.458.296-.082.584-.114.864-.098.28.015.54.075.783.18a2.075 2.075 0 0 1 1.1 1.086l-.988.272ZM21.079 21.129l-1.813.5-1.47-5.378 1.85-.51c.531-.147 1.017-.165 1.457-.055.442.108.82.334 1.135.678.315.344.549.795.702 1.354.153.56.18 1.07.083 1.53-.095.46-.308.85-.637 1.173-.328.322-.764.558-1.307.708Zm-1.074-.61.797-.22c.372-.103.665-.257.876-.462.212-.207.343-.465.393-.773.05-.309.02-.67-.093-1.08-.112-.412-.268-.736-.468-.973a1.329 1.329 0 0 0-.724-.458c-.28-.07-.603-.054-.965.046l-.825.228 1.009 3.692ZM17.982 19.092c.159.58.186 1.106.083 1.578-.102.471-.308.867-.62 1.188-.309.321-.698.546-1.166.675-.469.13-.918.136-1.35.02a2.42 2.42 0 0 1-1.136-.706c-.327-.354-.57-.82-.728-1.397-.158-.58-.186-1.105-.085-1.575.104-.473.31-.87.62-1.19a2.529 2.529 0 0 1 1.169-.677c.468-.13.917-.135 1.346-.018.431.116.81.351 1.137.705.329.352.572.817.73 1.397Zm-.974.27c-.112-.409-.27-.735-.473-.98a1.465 1.465 0 0 0-.697-.494 1.429 1.429 0 0 0-.83-.005c-.291.08-.528.224-.711.43-.184.206-.301.467-.351.784-.049.314-.018.676.094 1.083.111.409.268.736.47.983.204.245.438.41.7.493.262.082.539.083.83.003.29-.08.528-.223.712-.428.183-.207.299-.468.348-.783.05-.317.02-.679-.092-1.087ZM12.652 20.564c.159.58.187 1.105.084 1.578-.102.47-.309.867-.62 1.188-.31.32-.698.546-1.167.675-.469.13-.918.136-1.349.02a2.42 2.42 0 0 1-1.137-.706c-.327-.354-.57-.82-.728-1.398-.158-.58-.186-1.104-.084-1.575.103-.473.309-.87.618-1.19a2.53 2.53 0 0 1 1.17-.676c.469-.13.917-.136 1.346-.019.431.117.81.352 1.137.706.329.352.572.817.73 1.397Zm-.974.269c-.112-.408-.27-.735-.473-.98a1.465 1.465 0 0 0-.697-.494 1.43 1.43 0 0 0-.83-.005c-.29.08-.528.224-.711.431-.184.205-.3.466-.35.783-.05.315-.018.676.093 1.084.111.408.268.736.47.983.205.245.438.41.7.493.263.082.54.083.83.003.29-.08.528-.223.712-.428.183-.207.3-.468.348-.783.05-.317.02-.68-.092-1.087ZM2.98 26.126 0 21.165l1.042-.288 2.045 3.686.05-.014-.051-4.236.948-.262 2.113 3.67.047-.013-.117-4.22 1.043-.289-.04 5.795-.957.264-2.103-3.477-.041.011-.043 4.07-.956.264Z"/><path fill="#000" fill-rule="evenodd" d="M45.793 16.457 6.553 27.284l-.09-.329 39.24-10.827.09.329Z" clip-rule="evenodd"/><path fill="#000" d="m10.785 14.63.088-.323 1.216.336.004-.017-.985-1.178.08-.292 1.783.493-.089.325-1.214-.336-.004.015.983 1.181-.079.288-1.783-.493ZM12.479 11.231l.248.103-.227.555 1.035.428-.122.297-1.283-.53.349-.853ZM14.628 11.316l-1.597-1.05.176-.27.192.126.01-.016a.606.606 0 0 1-.05-.12.383.383 0 0 1-.014-.159.43.43 0 0 1 .075-.191.529.529 0 0 1 .542-.24.89.89 0 0 1 .368.151.911.911 0 0 1 .284.277.53.53 0 0 1 .002.598.4.4 0 0 1-.29.198.612.612 0 0 1-.13.002l-.008.012.619.406-.18.276Zm-.84-.938c.074.05.147.082.217.098.071.015.135.013.193-.007a.283.283 0 0 0 .144-.118.286.286 0 0 0 .051-.184.359.359 0 0 0-.073-.181.664.664 0 0 0-.174-.16.658.658 0 0 0-.212-.095.343.343 0 0 0-.192.006.288.288 0 0 0-.147.123.289.289 0 0 0-.052.18c.005.06.027.12.069.178.042.057.1.11.175.16ZM15.155 8.22l.299-.28c.13-.121.26-.183.389-.187a.433.433 0 0 1 .338.15.447.447 0 0 1 .09.476.693.693 0 0 1-.18.25l-.46.431-.946-1.02.23-.216.763.823.231-.216A.276.276 0 0 0 16 8.27a.174.174 0 0 0-.046-.15.182.182 0 0 0-.15-.062.265.265 0 0 0-.167.078l-.3.28-.182-.197Zm1.47-.092-.945-1.02.24-.224.945 1.02-.24.224ZM18.536 6.127l.035-1.101.295-.162.665 1.224-.277.152-.454-.834-.032 1.1-.296.163-.665-1.224.277-.152.452.834ZM20.34 5.302l.297-.131c.024.046.061.074.112.082a.303.303 0 0 0 .172-.029.325.325 0 0 0 .145-.114.159.159 0 0 0 .01-.16.176.176 0 0 0-.164-.11.28.28 0 0 0-.119.027l-.194.086-.094-.214.195-.085c.062-.028.103-.063.122-.106a.152.152 0 0 0 .002-.13.157.157 0 0 0-.102-.092.224.224 0 0 0-.159.017.283.283 0 0 0-.131.107.142.142 0 0 0-.015.131l-.296.13a.342.342 0 0 1-.018-.222.47.47 0 0 1 .12-.206.713.713 0 0 1 .23-.156.732.732 0 0 1 .276-.068.414.414 0 0 1 .222.052c.062.036.11.09.14.162.03.069.034.136.011.2a.4.4 0 0 1-.131.173l.005.014a.298.298 0 0 1 .296.045.342.342 0 0 1 .102.136.35.35 0 0 1 .022.232.467.467 0 0 1-.128.212.798.798 0 0 1-.247.164.801.801 0 0 1-.281.071.468.468 0 0 1-.24-.048.36.36 0 0 1-.16-.17ZM23.14 5.26l-.031-.674.11-.005a.272.272 0 0 0 .07-.097.652.652 0 0 0 .042-.143 1.66 1.66 0 0 0 .024-.184c.005-.068.01-.141.013-.22l.018-.489 1.001-.046.05 1.123.215-.01.03.675-.315.014-.018-.404-.907.041.018.405-.32.014Zm.414-.695.572-.026-.04-.858-.405.019-.012.224a3.716 3.716 0 0 1-.03.381.683.683 0 0 1-.085.26ZM26.14 4.877a.712.712 0 0 1-.349-.123.59.59 0 0 1-.206-.272.838.838 0 0 1-.042-.386.834.834 0 0 1 .119-.368.616.616 0 0 1 .607-.285c.085.009.164.03.237.066a.548.548 0 0 1 .188.147c.053.063.092.14.116.233.025.091.03.198.019.32l-.01.1-1.132-.116.023-.22.819.083a.355.355 0 0 0-.023-.17.296.296 0 0 0-.1-.129.311.311 0 0 0-.158-.059.317.317 0 0 0-.18.03.337.337 0 0 0-.131.115.367.367 0 0 0-.06.167l-.02.192c-.007.08 0 .151.024.212.023.06.06.109.11.145.05.035.11.056.18.064.047.005.09.002.13-.007a.286.286 0 0 0 .106-.05.252.252 0 0 0 .074-.092l.3.065a.478.478 0 0 1-.13.2.537.537 0 0 1-.22.118.785.785 0 0 1-.29.02ZM27.636 5.655l.53-1.842.308.09-.064.222.019.005a.606.606 0 0 1 .098-.084.378.378 0 0 1 .147-.06.425.425 0 0 1 .204.015c.103.03.189.084.256.16a.56.56 0 0 1 .131.29.9.9 0 0 1-.035.399.915.915 0 0 1-.18.354.57.57 0 0 1-.263.179c-.098.03-.2.03-.304 0a.404.404 0 0 1-.274-.221.621.621 0 0 1-.04-.125l-.014-.004-.205.713-.314-.09Zm.645-1.082a.676.676 0 0 0-.03.238.363.363 0 0 0 .064.183c.036.05.088.084.154.104.07.02.133.018.19-.005a.357.357 0 0 0 .151-.124.666.666 0 0 0 .1-.214.665.665 0 0 0 .029-.232.348.348 0 0 0-.062-.182.288.288 0 0 0-.16-.106.286.286 0 0 0-.186.004.339.339 0 0 0-.15.118.674.674 0 0 0-.1.216ZM30.546 6.158a.713.713 0 0 1-.314-.199.592.592 0 0 1-.14-.31.838.838 0 0 1 .043-.386.83.83 0 0 1 .198-.332.614.614 0 0 1 .655-.143.698.698 0 0 1 .216.118c.064.05.114.112.151.185a.598.598 0 0 1 .062.253.885.885 0 0 1-.053.316l-.032.095-1.077-.366.07-.21.78.265a.356.356 0 0 0 .016-.172.298.298 0 0 0-.21-.24.317.317 0 0 0-.183-.01.335.335 0 0 0-.152.082.366.366 0 0 0-.095.15l-.062.183a.456.456 0 0 0-.024.212c.01.064.034.119.075.165a.37.37 0 0 0 .162.103.394.394 0 0 0 .128.022c.041 0 .08-.009.115-.025a.253.253 0 0 0 .092-.073l.278.13a.476.476 0 0 1-.172.167.535.535 0 0 1-.24.066.785.785 0 0 1-.287-.046ZM31.931 6.985l.81-1.132.473.341c.133.097.22.2.259.31.04.109.025.212-.044.307a.246.246 0 0 1-.177.108.432.432 0 0 1-.236-.048c.056.047.097.1.123.157a.354.354 0 0 1 .035.175.32.32 0 0 1-.062.168.335.335 0 0 1-.166.128.384.384 0 0 1-.218.004.736.736 0 0 1-.251-.124l-.546-.394Zm.4-.03.296.214a.216.216 0 0 0 .14.048.145.145 0 0 0 .11-.065.178.178 0 0 0 .037-.14.196.196 0 0 0-.086-.124l-.297-.215-.2.281Zm.323-.454.23.166a.31.31 0 0 0 .104.052.164.164 0 0 0 .092-.002.146.146 0 0 0 .07-.056.13.13 0 0 0 .018-.125.277.277 0 0 0-.107-.128l-.224-.162-.183.255ZM34.01 8.672a.581.581 0 0 1-.132-.204.392.392 0 0 1-.015-.218.415.415 0 0 1 .122-.205.39.39 0 0 1 .17-.104.334.334 0 0 1 .17-.001.595.595 0 0 1 .168.073c.056.034.11.073.162.116l.154.127c.04.031.074.05.1.057.027.006.052-.002.074-.024l.004-.003a.206.206 0 0 0 .071-.155c-.001-.055-.028-.11-.081-.165a.312.312 0 0 0-.17-.1.259.259 0 0 0-.155.019l-.181-.25a.486.486 0 0 1 .468-.006.871.871 0 0 1 .339.321c.034.059.058.12.07.185a.395.395 0 0 1-.012.197.476.476 0 0 1-.13.198l-.666.65-.219-.226.137-.134-.008-.007a.397.397 0 0 1-.287-.026.541.541 0 0 1-.153-.115Zm.231-.107c.046.047.095.08.147.096a.286.286 0 0 0 .153.007.267.267 0 0 0 .129-.071l.117-.115a.153.153 0 0 1-.053-.02.74.74 0 0 1-.07-.046 2.475 2.475 0 0 1-.134-.102.574.574 0 0 0-.115-.072.217.217 0 0 0-.109-.021.154.154 0 0 0-.097.048.157.157 0 0 0-.052.143.289.289 0 0 0 .084.153Z"/><path fill="#000" fill-rule="evenodd" d="M37.248 8.394c.237.335.394.615.454.802l-.243.078c-.046-.148-.184-.4-.418-.732a11.36 11.36 0 0 0-.954-1.152c-.803-.86-1.929-1.86-3.324-2.741-2.79-1.763-6.648-3.054-11.151-1.851-4.518 1.206-7.353 3.495-9.059 6.082-1.708 2.59-2.292 5.487-2.292 7.917h-.254c0-2.469.593-5.418 2.334-8.059 1.743-2.642 4.631-4.966 9.205-6.187 4.59-1.226 8.52.092 11.352 1.881a17.373 17.373 0 0 1 3.375 2.783c.408.437.735.841.975 1.18Z" clip-rule="evenodd"/><path fill="#000" d="m27.153 23.084.748 1.057 1.233-.388-.77 1.042.748 1.058-1.224-.414-.77 1.042.014-1.298-1.224-.413 1.232-.389.013-1.297ZM22.915 7.959l.748 1.058 1.232-.389-.77 1.042.748 1.058-1.224-.414-.77 1.042.014-1.297-1.224-.414 1.232-.388.014-1.298Z"/><path fill="#000" fill-rule="evenodd" d="M27.679.11v.001l.005.005a1.69 1.69 0 0 0 .098.085 7.338 7.338 0 0 0 1.415.921c.928.46 2.163.804 3.447.411l.159-.048.085.142.103.174c.49.823.833 1.399 1.373 1.861.572.49 1.381.863 2.862 1.212l.138.032.023.14c.235 1.409.845 2.239 1.385 2.717.272.24.528.393.714.485a2.36 2.36 0 0 0 .29.121h.002l-.057.206-.057.205h-.003l-.007-.003a1.036 1.036 0 0 1-.096-.033 2.787 2.787 0 0 1-.26-.114 3.732 3.732 0 0 1-.806-.548c-.59-.522-1.23-1.399-1.498-2.826-1.425-.346-2.278-.732-2.905-1.27-.595-.51-.973-1.145-1.45-1.947l-.032-.053c-1.369.363-2.656-.016-3.598-.481a7.752 7.752 0 0 1-1.502-.98 4.4 4.4 0 0 1-.304.145 5.74 5.74 0 0 1-1.181.357c-.971.185-2.305.19-3.8-.501-.932.977-1.745 1.415-2.585 1.597-.647.14-1.31.128-2.027.113-.178-.004-.36-.007-.546-.009-.518 1.352-1.625 2.13-2.593 2.57a7.418 7.418 0 0 1-1.718.532 4.48 4.48 0 0 1-.045.352c-.053.325-.16.773-.373 1.274-.412.966-1.22 2.123-2.793 2.953.272.636.446 1.39.29 2.229-.165.877-.683 1.82-1.769 2.805.38.338.605.623.728.953.135.364.135.76.135 1.276v.031h-.424c0-.555-.003-.874-.108-1.158-.102-.274-.31-.538-.79-.936l-.194-.16.191-.165c1.161-1 1.663-1.92 1.814-2.725.15-.806-.045-1.53-.341-2.156l-.09-.19.188-.093c1.59-.784 2.38-1.908 2.773-2.832a5.17 5.17 0 0 0 .345-1.175 3.933 3.933 0 0 0 .048-.462v-.195l.188-.021h.003l.004-.001a2.04 2.04 0 0 0 .131-.02 6.993 6.993 0 0 0 1.632-.505c.948-.43 1.98-1.178 2.42-2.464l.05-.143h.15c.261 0 .506.005.74.01.702.013 1.297.025 1.891-.104.77-.167 1.54-.576 2.47-1.585l.107-.116.141.07c1.457.71 2.75.71 3.678.533a5.314 5.314 0 0 0 1.094-.331 3.928 3.928 0 0 0 .365-.18l.017-.01a.126.126 0 0 1 .003-.002h.001L27.56 0l.119.11ZM22.344 34.724h-.001l-.002-.002-.003-.003a7.396 7.396 0 0 0-1.518-1.032c-.933-.473-2.175-.832-3.474-.444l-.16.047-.083-.144L17 32.97c-.488-.837-.83-1.425-1.37-1.898-.574-.5-1.387-.886-2.878-1.25l-.137-.035-.023-.14c-.226-1.43-.835-2.277-1.376-2.766a3.338 3.338 0 0 0-.717-.498 2.396 2.396 0 0 0-.278-.12l-.013-.005h-.003l.06-.205c.058-.205.058-.205.059-.204h.003l.006.002.016.005.006.002.075.028c.064.024.153.062.261.117.215.11.504.287.808.562.592.534 1.23 1.427 1.489 2.876 1.435.362 2.291.76 2.92 1.31.595.521.971 1.168 1.447 1.985l.031.055c1.384-.357 2.68.037 3.626.517a7.815 7.815 0 0 1 1.505 1.002l.002.002a4.46 4.46 0 0 1 .309-.144c.282-.119.69-.26 1.194-.353.98-.18 2.327-.173 3.83.54.947-.984 1.77-1.42 2.619-1.599.653-.137 1.322-.118 2.045-.097.18.005.364.01.551.013.533-1.366 1.656-2.145 2.636-2.583a7.46 7.46 0 0 1 1.739-.526c.008-.091.022-.213.048-.359.056-.328.167-.78.386-1.286.424-.976 1.247-2.142 2.842-2.97-.27-.648-.44-1.412-.275-2.263.172-.887.704-1.838 1.808-2.828-.382-.347-.607-.639-.728-.973-.134-.37-.13-.771-.126-1.294v-.031l.424.003c-.005.563-.005.887.1 1.176.101.28.31.55.79.956l.191.162-.191.163c-1.18 1.005-1.693 1.932-1.852 2.748-.158.817.033 1.554.327 2.19l.088.19-.188.092c-1.611.782-2.416 1.915-2.821 2.85a5.27 5.27 0 0 0-.358 1.188 4.045 4.045 0 0 0-.052.446V29.749l-.002.19-.187.02h-.002l-.006.001-.026.003a6.08 6.08 0 0 0-.498.094c-.33.077-.78.208-1.259.42-.96.429-2.007 1.179-2.461 2.48l-.05.143-.152-.001c-.263-.002-.51-.01-.746-.016-.707-.02-1.308-.037-1.909.09-.778.163-1.557.571-2.504 1.586l-.108.116-.141-.071c-1.464-.733-2.769-.742-3.706-.57-.47.085-.847.217-1.107.326a3.977 3.977 0 0 0-.386.19l-.004.001-.14.086-.117-.113Z" clip-rule="evenodd"/></svg>